<?xml version="1.0" encoding="utf-8"?>
<!-- Generator: Adobe Illustrator 23.0.2, SVG Export Plug-In . SVG Version: 6.00 Build 0)  -->
<svg version="1.1" id="Layer_1" xmlns="http://www.w3.org/2000/svg" xmlns:xlink="http://www.w3.org/1999/xlink" x="0px" y="0px"
	 viewBox="0 0 50 50" style="enable-background:new 0 0 50 50;" xml:space="preserve">
<g>
	<path d="M3.6,10.1C3.4,10.1,3.2,10,3,9.9S2.7,9.5,2.7,9.2c0-0.3,0.1-0.5,0.3-0.7s0.4-0.2,0.6-0.2c0.2,0,0.4,0.1,0.6,0.2
		c0.2,0.2,0.3,0.4,0.3,0.7c0,0.3-0.1,0.5-0.3,0.7C4,10,3.8,10.1,3.6,10.1z M3.3,7.2L3.1,3l0-1.1h1l0,1.1L3.9,7.2H3.3z"/>
	<path d="M8.8,5.8L8.4,5.2C8.8,5,9.1,4.7,9.3,4.4s0.3-0.7,0.4-1.1c-0.1,0-0.2,0.1-0.3,0.1c-0.3,0-0.5-0.1-0.6-0.2
		C8.6,3,8.5,2.8,8.5,2.5c0-0.3,0.1-0.5,0.3-0.7c0.2-0.2,0.4-0.3,0.6-0.3c0.3,0,0.6,0.1,0.8,0.4c0.2,0.3,0.3,0.6,0.3,1.1
		c0,0.6-0.2,1.1-0.5,1.6C9.7,5.1,9.3,5.5,8.8,5.8z M11.5,5.8l-0.3-0.6c0.4-0.2,0.7-0.5,0.9-0.8c0.2-0.3,0.3-0.7,0.4-1.1
		c-0.1,0-0.2,0.1-0.3,0.1c-0.3,0-0.5-0.1-0.6-0.2c-0.2-0.2-0.2-0.4-0.2-0.6c0-0.3,0.1-0.5,0.3-0.7s0.4-0.3,0.6-0.3
		c0.3,0,0.6,0.1,0.8,0.4c0.2,0.3,0.3,0.6,0.3,1.1c0,0.6-0.2,1.1-0.5,1.6C12.5,5.1,12.1,5.5,11.5,5.8z"/>
	<path d="M18.3,10l0.3-2.4h-1.6L16.8,10h-0.6l0.3-2.4h-1V6.8h1l0.2-1.8h-1V4.4h1.1l0.3-2.2h0.6l-0.3,2.2H19l0.3-2.2h0.6l-0.3,2.2h1
		v0.7h-1l-0.2,1.8h1v0.7h-1.1L19,10H18.3z M18.7,6.8l0.2-1.8h-1.6l-0.2,1.8H18.7z"/>
	<path d="M22.6,8.6l0.5-0.7c0.3,0.2,0.6,0.4,1,0.6c0.4,0.2,0.8,0.2,1.2,0.2c0.5,0,0.8-0.1,1.1-0.3c0.2-0.2,0.4-0.4,0.4-0.8
		c0-0.2-0.1-0.5-0.3-0.6c-0.2-0.2-0.4-0.3-0.7-0.4c-0.3-0.1-0.6-0.3-0.9-0.4C24.5,6.1,24.2,6,24,5.8c-0.3-0.2-0.5-0.4-0.7-0.6
		S23,4.7,23,4.4c0-0.5,0.2-0.9,0.5-1.2s0.8-0.5,1.4-0.6V1h0.7v1.6c0.4,0,0.8,0.1,1.1,0.3C27,3,27.3,3.2,27.5,3.5L27,4
		c-0.1-0.1-0.3-0.2-0.4-0.3c-0.1-0.1-0.3-0.2-0.4-0.2c-0.1-0.1-0.3-0.1-0.4-0.1c-0.2,0-0.3,0-0.5,0c-0.4,0-0.7,0.1-1,0.3
		c-0.2,0.2-0.4,0.4-0.4,0.7c0,0.2,0.1,0.4,0.3,0.6c0.2,0.1,0.4,0.3,0.7,0.4c0.3,0.1,0.6,0.2,0.9,0.4s0.6,0.3,0.9,0.4
		c0.3,0.2,0.5,0.4,0.7,0.6c0.2,0.2,0.3,0.5,0.3,0.9c0,0.3-0.1,0.5-0.2,0.7c-0.1,0.2-0.2,0.4-0.4,0.6s-0.4,0.3-0.7,0.4
		s-0.5,0.2-0.9,0.2v1.8h-0.7V9.5c-0.4,0-0.9-0.1-1.3-0.3C23.2,9,22.9,8.8,22.6,8.6z"/>
	<path d="M30.8,6.1c-0.5,0-0.9-0.2-1.2-0.5s-0.5-0.8-0.5-1.5c0-0.6,0.2-1.1,0.5-1.4c0.3-0.3,0.7-0.5,1.2-0.5s0.9,0.2,1.2,0.5
		c0.3,0.3,0.5,0.8,0.5,1.4c0,0.6-0.2,1.1-0.5,1.5C31.7,5.9,31.3,6.1,30.8,6.1z M29.7,9.6L29.1,9l2.2-2.3l0.4,0.4L29.7,9.6z
		 M30.8,5.5c0.3,0,0.5-0.1,0.7-0.3s0.3-0.6,0.3-1.1c0-0.5-0.1-0.8-0.3-1c-0.2-0.2-0.4-0.3-0.7-0.3s-0.5,0.1-0.7,0.3
		c-0.2,0.2-0.3,0.6-0.3,1c0,0.5,0.1,0.8,0.3,1.1C30.3,5.4,30.5,5.5,30.8,5.5z M34,10.1c-0.5,0-0.9-0.2-1.2-0.5
		c-0.3-0.4-0.5-0.8-0.5-1.5s0.2-1.1,0.5-1.4c0.3-0.3,0.7-0.5,1.2-0.5s0.9,0.2,1.2,0.5s0.5,0.8,0.5,1.4s-0.2,1.1-0.5,1.5
		S34.5,10.1,34,10.1z M33.5,5.3l-0.4-0.4l2-2.4L35.7,3L33.5,5.3z M34,9.5c0.3,0,0.5-0.1,0.7-0.3c0.2-0.2,0.3-0.6,0.3-1.1
		c0-0.5-0.1-0.8-0.3-1c-0.2-0.2-0.4-0.3-0.7-0.3s-0.5,0.1-0.7,0.3c-0.2,0.2-0.3,0.6-0.3,1c0,0.5,0.1,0.8,0.3,1.1S33.8,9.5,34,9.5z"
		/>
	<path d="M38.9,10.1c-0.4,0-0.7-0.1-1-0.2c-0.3-0.1-0.5-0.3-0.7-0.4c-0.2-0.2-0.4-0.4-0.5-0.7c-0.1-0.3-0.2-0.6-0.2-0.9
		c0-0.3,0-0.5,0.1-0.7s0.2-0.4,0.3-0.6c0.1-0.2,0.3-0.3,0.5-0.5C37.6,6,37.8,5.8,38,5.7c-0.2-0.3-0.3-0.6-0.4-1
		c-0.1-0.3-0.1-0.6-0.1-0.9c0-0.3,0-0.5,0.1-0.7c0.1-0.2,0.2-0.4,0.3-0.6s0.3-0.3,0.5-0.4c0.2-0.1,0.5-0.1,0.7-0.1
		c0.5,0,0.9,0.1,1.1,0.4c0.3,0.3,0.4,0.7,0.4,1.1c0,0.3,0,0.5-0.2,0.7c-0.1,0.2-0.2,0.4-0.4,0.6s-0.3,0.4-0.5,0.5
		c-0.2,0.2-0.4,0.3-0.6,0.5c0.3,0.4,0.5,0.8,0.9,1.2s0.7,0.7,1,1c0.2-0.3,0.4-0.7,0.6-1.1c0.2-0.4,0.3-0.8,0.4-1.3h0.9
		c-0.1,0.5-0.3,1-0.5,1.5c-0.2,0.5-0.5,0.9-0.7,1.3c0.5,0.4,0.9,0.6,1.4,0.8l-0.3,0.8c-0.5-0.2-1.1-0.5-1.6-0.9
		c-0.3,0.3-0.6,0.5-1,0.7C39.7,10,39.3,10.1,38.9,10.1z M39,9.3c0.2,0,0.5-0.1,0.7-0.2s0.5-0.3,0.7-0.5C40,8.4,39.6,8,39.3,7.6
		s-0.6-0.8-0.9-1.2c-0.3,0.2-0.5,0.5-0.6,0.7s-0.3,0.5-0.3,0.8c0,0.2,0,0.4,0.1,0.6c0.1,0.2,0.2,0.3,0.3,0.5C38,9,38.2,9.1,38.4,9.2
		C38.6,9.3,38.8,9.3,39,9.3z M38.3,3.8c0,0.2,0,0.4,0.1,0.7c0.1,0.2,0.2,0.5,0.3,0.7c0.2-0.1,0.3-0.2,0.5-0.4
		c0.1-0.1,0.3-0.3,0.4-0.4c0.1-0.1,0.2-0.3,0.3-0.4c0.1-0.1,0.1-0.3,0.1-0.5c0-0.2-0.1-0.4-0.2-0.6c-0.1-0.2-0.3-0.3-0.6-0.3
		c-0.3,0-0.5,0.1-0.6,0.3C38.4,3.2,38.3,3.5,38.3,3.8z"/>
	<path d="M44.5,6.6l1.8-4.6h0.9l1.8,4.6h-0.9l-0.8-2.1l-0.6-1.6h0l-0.6,1.6l-0.8,2.1H44.5z"/>
	<path d="M55.6,12.1c-0.8-0.6-1.5-1.4-2-2.3s-0.7-1.9-0.7-3.1s0.2-2.2,0.7-3.1c0.5-0.9,1.1-1.7,2-2.3l0.5,0.5
		c-0.8,0.7-1.4,1.4-1.8,2.2c-0.4,0.8-0.6,1.7-0.6,2.7s0.2,1.9,0.6,2.7c0.4,0.8,1,1.5,1.8,2.2L55.6,12.1z"/>
	<path d="M59.6,12.1l-0.5-0.5c0.8-0.7,1.4-1.4,1.8-2.2c0.4-0.8,0.6-1.7,0.6-2.7s-0.2-1.9-0.6-2.7c-0.4-0.8-1-1.5-1.8-2.2l0.5-0.5
		c0.8,0.6,1.5,1.4,2,2.3c0.5,0.9,0.7,1.9,0.7,3.1s-0.2,2.2-0.7,3.1C61.1,10.6,60.4,11.4,59.6,12.1z"/>
	<path d="M67,8.6l-0.5-0.4l1.3-2l-1.9-0.8L66,4.9l2,0.7l0.1-2.3h0.6l0.1,2.3l2-0.7L71,5.4L69,6.3l1.3,2l-0.5,0.4l-1.4-1.9L67,8.6z"
		/>
	<path d="M75.2,8.7V6.4H73V5.6h2.2V3.3H76v2.3h2.2v0.7H76v2.3H75.2z"/>
	<path d="M81.8,12.5l-0.3-0.6c0.5-0.2,0.9-0.5,1.1-0.8c0.2-0.3,0.4-0.7,0.4-1.2c0,0-0.1,0-0.1,0c0,0-0.1,0-0.1,0
		c-0.3,0-0.5-0.1-0.7-0.2C82,9.5,81.9,9.3,81.9,9c0-0.3,0.1-0.5,0.3-0.7c0.2-0.2,0.4-0.2,0.7-0.2c0.4,0,0.6,0.1,0.8,0.4
		C83.9,8.8,84,9.2,84,9.6c0,0.7-0.2,1.3-0.6,1.8C83,11.9,82.5,12.3,81.8,12.5z"/>
	<path d="M87.4,6.4V5.6h5.2v0.7H87.4z"/>
	<path d="M97.2,10.1c-0.3,0-0.5-0.1-0.7-0.3c-0.2-0.2-0.3-0.4-0.3-0.7c0-0.3,0.1-0.6,0.3-0.7s0.4-0.3,0.7-0.3c0.3,0,0.5,0.1,0.7,0.3
		c0.2,0.2,0.3,0.4,0.3,0.7c0,0.3-0.1,0.5-0.3,0.7C97.7,10,97.5,10.1,97.2,10.1z"/>
	<path d="M102,11.9l3.9-10.4h0.9l-3.9,10.4H102z"/>
	<path d="M111.6,10.1c-0.9,0-1.5-0.3-2-1s-0.7-1.7-0.7-3c0-1.3,0.2-2.3,0.7-2.9s1.2-1,2-1c0.9,0,1.5,0.3,2,1
		c0.5,0.7,0.7,1.7,0.7,2.9c0,1.3-0.2,2.3-0.7,3C113.1,9.8,112.5,10.1,111.6,10.1z M111.6,9.3c0.5,0,1-0.3,1.3-0.8
		c0.3-0.5,0.5-1.3,0.5-2.4c0-0.6,0-1-0.1-1.4s-0.2-0.7-0.4-1c-0.2-0.3-0.4-0.5-0.6-0.6C112.1,3,111.9,3,111.6,3
		c-0.3,0-0.5,0.1-0.7,0.2c-0.2,0.1-0.4,0.3-0.6,0.6c-0.2,0.3-0.3,0.6-0.4,1s-0.1,0.9-0.1,1.4c0,1.1,0.2,1.9,0.5,2.4
		C110.6,9.1,111.1,9.3,111.6,9.3z M111.6,6.8c-0.2,0-0.4-0.1-0.5-0.2c-0.1-0.1-0.2-0.3-0.2-0.6c0-0.2,0.1-0.4,0.2-0.6
		c0.1-0.1,0.3-0.2,0.5-0.2c0.2,0,0.4,0.1,0.5,0.2c0.1,0.1,0.2,0.3,0.2,0.6c0,0.3-0.1,0.5-0.2,0.6C112,6.8,111.8,6.8,111.6,6.8z"/>
	<path d="M116.4,10V9.1h2.2V3.5h-1.7V2.9c0.5-0.1,0.8-0.1,1.1-0.2c0.3-0.1,0.6-0.2,0.8-0.3h0.7v6.8h2V10H116.4z"/>
	<path d="M123.3,10V9.4c0.6-0.6,1.2-1.1,1.7-1.6s0.9-0.9,1.3-1.3c0.3-0.4,0.6-0.8,0.8-1.1c0.2-0.3,0.3-0.7,0.3-1
		c0-0.4-0.1-0.8-0.4-1.1c-0.3-0.3-0.7-0.4-1.3-0.4c-0.4,0-0.7,0.1-1,0.3c-0.3,0.2-0.6,0.4-0.8,0.7l-0.6-0.6c0.3-0.4,0.7-0.6,1.1-0.8
		s0.9-0.3,1.4-0.3c0.4,0,0.7,0.1,1,0.2c0.3,0.1,0.6,0.3,0.8,0.5c0.2,0.2,0.4,0.4,0.5,0.7c0.1,0.3,0.2,0.6,0.2,0.9
		c0,0.4-0.1,0.7-0.3,1.1c-0.2,0.4-0.4,0.7-0.7,1.1c-0.3,0.4-0.7,0.8-1.1,1.2c-0.4,0.4-0.9,0.9-1.4,1.3c0.2,0,0.5,0,0.7,0
		c0.2,0,0.5,0,0.7,0h2.5V10H123.3z"/>
	<path d="M133,10.1c-0.7,0-1.2-0.1-1.7-0.3c-0.4-0.2-0.8-0.5-1.1-0.8l0.5-0.6c0.3,0.2,0.6,0.5,0.9,0.6c0.4,0.2,0.8,0.3,1.3,0.3
		c0.3,0,0.5,0,0.7-0.1c0.2-0.1,0.4-0.2,0.6-0.3c0.2-0.1,0.3-0.3,0.4-0.4c0.1-0.2,0.1-0.4,0.1-0.6c0-0.2-0.1-0.4-0.2-0.6
		s-0.3-0.4-0.5-0.5c-0.2-0.1-0.5-0.2-0.9-0.3c-0.4-0.1-0.8-0.1-1.3-0.1V5.6c0.5,0,0.8,0,1.2-0.1c0.3-0.1,0.6-0.2,0.8-0.3
		c0.2-0.1,0.3-0.3,0.4-0.5c0.1-0.2,0.1-0.4,0.1-0.6c0-0.4-0.1-0.7-0.4-0.9C133.8,3.1,133.5,3,133,3c-0.4,0-0.7,0.1-1,0.2
		c-0.3,0.1-0.6,0.3-0.9,0.6l-0.5-0.6c0.3-0.3,0.7-0.5,1.1-0.7c0.4-0.2,0.9-0.3,1.4-0.3c0.4,0,0.7,0,1,0.1c0.3,0.1,0.6,0.2,0.8,0.4
		s0.4,0.4,0.5,0.6c0.1,0.2,0.2,0.5,0.2,0.8c0,0.5-0.2,0.8-0.5,1.1s-0.7,0.5-1.2,0.7v0c0.3,0.1,0.5,0.1,0.7,0.2
		c0.2,0.1,0.4,0.2,0.6,0.4c0.2,0.2,0.3,0.4,0.4,0.6c0.1,0.2,0.2,0.5,0.2,0.7c0,0.3-0.1,0.6-0.2,0.9c-0.1,0.3-0.3,0.5-0.6,0.7
		s-0.5,0.3-0.9,0.4C133.8,10.1,133.4,10.1,133,10.1z"/>
	<path d="M141.2,10V7.8h-3.9V7.2l3.8-4.9h1.1v4.8h1.2v0.8h-1.2V10H141.2z M138.4,7.1h2.9V4.7c0-0.2,0-0.4,0-0.7s0-0.5,0-0.7h-0.1
		c-0.1,0.2-0.2,0.4-0.4,0.6s-0.3,0.4-0.4,0.6L138.4,7.1z"/>
	<path d="M147.4,10.1c-0.3,0-0.7,0-0.9-0.1c-0.3-0.1-0.5-0.1-0.7-0.2c-0.2-0.1-0.4-0.2-0.6-0.3c-0.2-0.1-0.3-0.3-0.5-0.4l0.5-0.6
		c0.1,0.1,0.3,0.2,0.4,0.3c0.1,0.1,0.3,0.2,0.5,0.3s0.4,0.1,0.6,0.2c0.2,0,0.4,0.1,0.7,0.1c0.3,0,0.5,0,0.8-0.1s0.4-0.2,0.6-0.4
		s0.3-0.3,0.4-0.6c0.1-0.2,0.2-0.5,0.2-0.7c0-0.5-0.2-0.9-0.5-1.2c-0.3-0.3-0.8-0.4-1.4-0.4c-0.3,0-0.6,0-0.8,0.1
		c-0.2,0.1-0.5,0.2-0.7,0.3L145.3,6l0.3-3.7h4.3v0.9h-3.5l-0.2,2.3c0.2-0.1,0.4-0.2,0.7-0.2c0.2-0.1,0.5-0.1,0.8-0.1
		c0.4,0,0.7,0,1,0.1c0.3,0.1,0.6,0.2,0.8,0.4c0.2,0.2,0.4,0.4,0.6,0.7c0.1,0.3,0.2,0.7,0.2,1.1c0,0.4-0.1,0.8-0.2,1.1
		c-0.2,0.3-0.4,0.6-0.6,0.8c-0.3,0.2-0.6,0.4-0.9,0.5C148.2,10,147.8,10.1,147.4,10.1z"/>
	<path d="M155,10.1c-0.4,0-0.8-0.1-1.2-0.2c-0.4-0.2-0.7-0.4-0.9-0.7c-0.3-0.3-0.5-0.7-0.6-1.2s-0.2-1-0.2-1.6c0-0.8,0.1-1.4,0.3-2
		c0.2-0.5,0.4-1,0.7-1.3c0.3-0.3,0.6-0.6,1-0.7c0.4-0.2,0.8-0.2,1.2-0.2c0.5,0,0.9,0.1,1.2,0.2c0.3,0.2,0.6,0.4,0.9,0.6l-0.6,0.6
		c-0.2-0.2-0.4-0.3-0.7-0.4C155.9,3,155.7,3,155.4,3c-0.3,0-0.6,0.1-0.9,0.2c-0.3,0.1-0.5,0.3-0.7,0.6c-0.2,0.3-0.4,0.6-0.5,1
		c-0.1,0.4-0.2,0.9-0.2,1.6c0.3-0.3,0.7-0.5,1-0.7c0.4-0.2,0.8-0.3,1.1-0.3c0.4,0,0.7,0.1,1,0.2c0.3,0.1,0.5,0.2,0.8,0.4
		c0.2,0.2,0.4,0.4,0.5,0.7c0.1,0.3,0.2,0.6,0.2,1c0,0.4-0.1,0.7-0.2,1c-0.1,0.3-0.3,0.6-0.6,0.8s-0.5,0.4-0.8,0.5
		C155.7,10,155.4,10.1,155,10.1z M155,9.3c0.2,0,0.4,0,0.6-0.1s0.4-0.2,0.5-0.3c0.1-0.1,0.3-0.3,0.3-0.5s0.1-0.4,0.1-0.7
		c0-0.5-0.1-0.9-0.4-1.2C156,6.2,155.6,6,155,6c-0.3,0-0.6,0.1-1,0.2c-0.3,0.2-0.7,0.4-1,0.8c0.1,0.7,0.3,1.3,0.6,1.7
		C154,9.1,154.5,9.3,155,9.3z"/>
	<path d="M161.1,10c0-0.7,0.1-1.4,0.2-2c0.1-0.6,0.3-1.2,0.5-1.7c0.2-0.5,0.5-1.1,0.8-1.6c0.3-0.5,0.7-1,1.1-1.6h-4.4V2.3h5.5v0.6
		c-0.5,0.6-0.9,1.1-1.2,1.7c-0.3,0.5-0.6,1.1-0.8,1.6c-0.2,0.5-0.3,1.1-0.4,1.7s-0.1,1.3-0.2,2H161.1z"/>
	<path d="M169.2,10.1c-0.4,0-0.8-0.1-1.2-0.2c-0.3-0.1-0.6-0.2-0.9-0.4c-0.2-0.2-0.4-0.4-0.6-0.7c-0.1-0.3-0.2-0.5-0.2-0.8
		c0-0.3,0-0.5,0.1-0.7s0.2-0.4,0.4-0.6c0.2-0.2,0.3-0.3,0.5-0.4s0.4-0.2,0.6-0.3v0c-0.3-0.2-0.6-0.4-0.8-0.7c-0.2-0.3-0.3-0.6-0.3-1
		c0-0.3,0.1-0.6,0.2-0.8c0.1-0.2,0.3-0.4,0.5-0.6c0.2-0.2,0.5-0.3,0.8-0.4c0.3-0.1,0.6-0.1,0.9-0.1c0.4,0,0.7,0,1,0.1
		c0.3,0.1,0.5,0.2,0.7,0.4c0.2,0.2,0.4,0.4,0.5,0.6c0.1,0.3,0.2,0.5,0.2,0.8c0,0.4-0.1,0.7-0.3,1c-0.2,0.3-0.5,0.6-0.8,0.8v0
		c0.2,0.1,0.4,0.2,0.6,0.3c0.2,0.1,0.3,0.3,0.5,0.4c0.1,0.2,0.2,0.3,0.3,0.5s0.1,0.4,0.1,0.7c0,0.3-0.1,0.6-0.2,0.8
		c-0.1,0.2-0.3,0.5-0.5,0.6c-0.2,0.2-0.5,0.3-0.9,0.4C170.1,10.1,169.7,10.1,169.2,10.1z M169.2,9.4c0.6,0,1-0.1,1.3-0.4
		c0.3-0.2,0.5-0.6,0.5-1c0-0.3-0.1-0.5-0.2-0.7c-0.1-0.2-0.3-0.3-0.5-0.5c-0.2-0.1-0.5-0.2-0.8-0.3c-0.3-0.1-0.6-0.2-0.9-0.3
		c-0.4,0.2-0.7,0.4-0.9,0.7c-0.2,0.3-0.4,0.6-0.4,1c0,0.4,0.2,0.8,0.5,1.1C168.2,9.2,168.7,9.4,169.2,9.4z M169.8,5.8
		c0.6-0.5,1-1,1-1.5c0-0.4-0.1-0.7-0.4-1c-0.3-0.3-0.6-0.4-1.2-0.4c-0.4,0-0.8,0.1-1,0.3s-0.4,0.5-0.4,0.9c0,0.2,0.1,0.4,0.2,0.6
		s0.2,0.3,0.4,0.4s0.4,0.2,0.6,0.3S169.5,5.7,169.8,5.8z"/>
	<path d="M175.9,10.1c-0.5,0-0.9-0.1-1.2-0.2c-0.3-0.2-0.6-0.3-0.9-0.6l0.6-0.6c0.2,0.2,0.4,0.3,0.7,0.4c0.3,0.1,0.5,0.2,0.8,0.2
		c0.3,0,0.6-0.1,0.9-0.2c0.3-0.1,0.5-0.3,0.7-0.6c0.2-0.3,0.4-0.6,0.5-1c0.1-0.4,0.2-0.9,0.2-1.5c-0.3,0.3-0.7,0.5-1,0.7
		C176.8,6.9,176.4,7,176,7c-0.4,0-0.7,0-1-0.1c-0.3-0.1-0.5-0.2-0.8-0.4c-0.2-0.2-0.4-0.4-0.5-0.7c-0.1-0.3-0.2-0.6-0.2-1
		c0-0.4,0.1-0.7,0.2-1c0.1-0.3,0.3-0.6,0.6-0.8c0.2-0.2,0.5-0.4,0.8-0.5c0.3-0.1,0.6-0.2,1-0.2c0.4,0,0.8,0.1,1.2,0.2
		c0.4,0.2,0.7,0.4,0.9,0.7c0.3,0.3,0.5,0.7,0.6,1.2s0.2,1,0.2,1.6c0,0.8-0.1,1.4-0.3,2c-0.2,0.5-0.4,1-0.7,1.3
		c-0.3,0.3-0.6,0.6-1,0.7C176.7,10,176.3,10.1,175.9,10.1z M176.2,6.2c0.3,0,0.6-0.1,1-0.2s0.7-0.4,1-0.8c-0.1-0.8-0.3-1.3-0.6-1.7
		c-0.3-0.4-0.8-0.6-1.3-0.6c-0.2,0-0.4,0-0.6,0.1c-0.2,0.1-0.4,0.2-0.5,0.3c-0.1,0.1-0.3,0.3-0.3,0.5s-0.1,0.4-0.1,0.7
		c0,0.5,0.1,0.9,0.4,1.2C175.2,6.1,175.6,6.2,176.2,6.2z"/>
	<path d="M183.6,5.8c-0.3,0-0.5-0.1-0.7-0.3c-0.2-0.2-0.3-0.4-0.3-0.7c0-0.3,0.1-0.5,0.3-0.7c0.2-0.2,0.4-0.3,0.7-0.3
		s0.5,0.1,0.7,0.3s0.3,0.4,0.3,0.7c0,0.3-0.1,0.5-0.3,0.7C184.1,5.7,183.9,5.8,183.6,5.8z M183.6,10.1c-0.3,0-0.5-0.1-0.7-0.3
		c-0.2-0.2-0.3-0.4-0.3-0.7c0-0.3,0.1-0.6,0.3-0.7c0.2-0.2,0.4-0.3,0.7-0.3s0.5,0.1,0.7,0.3s0.3,0.4,0.3,0.7c0,0.3-0.1,0.5-0.3,0.7
		C184.1,10,183.9,10.1,183.6,10.1z"/>
	<path d="M189.8,12.5l-0.3-0.6c0.5-0.2,0.9-0.5,1.1-0.8c0.2-0.3,0.4-0.7,0.4-1.2c0,0-0.1,0-0.1,0c0,0-0.1,0-0.1,0
		c-0.3,0-0.5-0.1-0.7-0.2c-0.2-0.1-0.3-0.4-0.3-0.7c0-0.3,0.1-0.5,0.3-0.7c0.2-0.2,0.4-0.2,0.7-0.2c0.4,0,0.6,0.1,0.8,0.4
		c0.2,0.3,0.3,0.6,0.3,1.1c0,0.7-0.2,1.3-0.6,1.8C191,11.9,190.5,12.3,189.8,12.5z M190.8,5.8c-0.3,0-0.5-0.1-0.7-0.3
		c-0.2-0.2-0.3-0.4-0.3-0.7c0-0.3,0.1-0.5,0.3-0.7c0.2-0.2,0.4-0.3,0.7-0.3s0.5,0.1,0.7,0.3s0.3,0.4,0.3,0.7c0,0.3-0.1,0.5-0.3,0.7
		C191.3,5.7,191.1,5.8,190.8,5.8z"/>
	<path d="M200.3,9.4l-4.5-3V5.6l4.5-3v0.9L196.7,6v0l3.6,2.4V9.4z"/>
	<path d="M202.6,5.1V4.3h5.2v0.7H202.6z M202.6,7.6V6.9h5.2v0.7H202.6z"/>
	<path d="M210.1,9.4V8.4l3.6-2.4v0l-3.6-2.4V2.6l4.5,3v0.7L210.1,9.4z"/>
	<path d="M218.9,7.2c0-0.3,0-0.5,0-0.8c0.1-0.2,0.2-0.4,0.3-0.6c0.1-0.2,0.3-0.4,0.5-0.5c0.2-0.2,0.3-0.3,0.5-0.5
		c0.2-0.2,0.3-0.3,0.4-0.5c0.1-0.2,0.2-0.4,0.2-0.6c0-0.3-0.1-0.6-0.3-0.8c-0.2-0.2-0.6-0.3-1-0.3c-0.3,0-0.6,0.1-0.8,0.2
		c-0.3,0.1-0.5,0.3-0.7,0.5l-0.6-0.5c0.3-0.3,0.6-0.5,1-0.7c0.4-0.2,0.8-0.3,1.2-0.3c0.3,0,0.6,0,0.9,0.1c0.3,0.1,0.5,0.2,0.7,0.4
		c0.2,0.2,0.3,0.4,0.5,0.6c0.1,0.2,0.2,0.5,0.2,0.8c0,0.3-0.1,0.5-0.2,0.7c-0.1,0.2-0.2,0.4-0.4,0.6c-0.2,0.2-0.3,0.3-0.5,0.5
		c-0.2,0.2-0.3,0.3-0.5,0.5c-0.1,0.2-0.3,0.4-0.3,0.6c-0.1,0.2-0.1,0.4-0.1,0.7H218.9z M219.4,10.1c-0.2,0-0.4-0.1-0.6-0.3
		s-0.3-0.4-0.3-0.7c0-0.3,0.1-0.5,0.3-0.7s0.4-0.2,0.6-0.2c0.2,0,0.4,0.1,0.6,0.2s0.3,0.4,0.3,0.7c0,0.3-0.1,0.5-0.3,0.7
		S219.7,10.1,219.4,10.1z"/>
	<path d="M227.3,11.7c-0.5,0-0.9-0.1-1.3-0.3s-0.8-0.5-1.1-0.9s-0.6-0.9-0.8-1.5c-0.2-0.6-0.3-1.3-0.3-2s0.1-1.4,0.3-2
		c0.2-0.6,0.4-1.1,0.8-1.4c0.3-0.4,0.7-0.7,1.1-0.9c0.4-0.2,0.9-0.3,1.4-0.3c0.4,0,0.8,0.1,1.1,0.2s0.6,0.3,0.8,0.6
		c0.2,0.3,0.3,0.6,0.5,0.9c0.1,0.3,0.1,0.7,0.1,1.1v3.6h-0.6l-0.1-0.7h0c-0.2,0.2-0.4,0.4-0.7,0.6c-0.3,0.2-0.6,0.3-0.9,0.3
		c-0.2,0-0.4,0-0.6-0.1c-0.2-0.1-0.4-0.2-0.5-0.3c-0.1-0.1-0.3-0.3-0.3-0.5c-0.1-0.2-0.1-0.4-0.1-0.7c0-0.6,0.3-1.1,0.8-1.4
		c0.5-0.3,1.3-0.5,2.4-0.7V5.1c0-0.3,0-0.6-0.1-0.8c-0.1-0.3-0.2-0.5-0.3-0.7s-0.3-0.3-0.6-0.5c-0.2-0.1-0.5-0.2-0.8-0.2
		c-0.4,0-0.7,0.1-1,0.3s-0.6,0.4-0.9,0.8s-0.5,0.7-0.6,1.2c-0.1,0.5-0.2,1.1-0.2,1.7c0,0.6,0.1,1.2,0.2,1.7c0.1,0.5,0.3,0.9,0.6,1.3
		c0.2,0.3,0.5,0.6,0.9,0.8c0.3,0.2,0.7,0.3,1.1,0.3c0.4,0,0.7,0,0.9-0.1c0.3-0.1,0.5-0.2,0.8-0.4l0.3,0.5c-0.3,0.2-0.6,0.4-1,0.5
		C228.1,11.6,227.7,11.7,227.3,11.7z M227.6,8.2c0.4,0,0.9-0.3,1.3-0.8V5.9c-0.8,0.1-1.4,0.3-1.8,0.5c-0.4,0.2-0.5,0.5-0.5,0.9
		c0,0.3,0.1,0.5,0.3,0.7C227.1,8.1,227.3,8.2,227.6,8.2z"/>
	<path d="M0.4,24.4L3,16.5h1.1l2.7,7.9H5.8L5,22H2.2l-0.8,2.4H0.4z M2.8,20l-0.4,1.2h2.4L4.4,20c-0.1-0.4-0.3-0.9-0.4-1.3
		c-0.1-0.4-0.3-0.9-0.4-1.3h0c-0.1,0.5-0.3,0.9-0.4,1.3C3.1,19.1,2.9,19.5,2.8,20z"/>
	<path d="M8.4,24.4v-7.9h2.2c0.4,0,0.8,0,1.1,0.1c0.3,0.1,0.6,0.2,0.9,0.3c0.2,0.2,0.4,0.4,0.6,0.6c0.1,0.2,0.2,0.5,0.2,0.9
		c0,0.4-0.1,0.7-0.3,1.1c-0.2,0.3-0.6,0.5-1,0.7v0c0.6,0.1,1,0.3,1.3,0.6s0.5,0.7,0.5,1.3c0,0.4-0.1,0.7-0.2,1s-0.3,0.5-0.6,0.7
		c-0.3,0.2-0.6,0.3-0.9,0.4c-0.4,0.1-0.8,0.1-1.2,0.1H8.4z M9.4,19.8h1.1c0.7,0,1.2-0.1,1.4-0.3c0.3-0.2,0.4-0.5,0.4-1
		c0-0.4-0.2-0.7-0.5-0.9s-0.8-0.3-1.4-0.3H9.4V19.8z M9.4,23.5h1.3c0.7,0,1.2-0.1,1.6-0.4c0.4-0.2,0.6-0.6,0.6-1.2
		c0-0.5-0.2-0.8-0.5-1s-0.9-0.3-1.6-0.3H9.4V23.5z"/>
	<path d="M18.6,24.5c-0.5,0-0.9-0.1-1.4-0.3c-0.4-0.2-0.8-0.5-1.1-0.8c-0.3-0.3-0.6-0.8-0.7-1.3c-0.2-0.5-0.3-1.1-0.3-1.7
		c0-0.6,0.1-1.2,0.3-1.7s0.4-0.9,0.7-1.3s0.7-0.6,1.1-0.8s0.9-0.3,1.4-0.3c0.5,0,0.9,0.1,1.3,0.3c0.4,0.2,0.7,0.4,0.9,0.7l-0.6,0.6
		c-0.2-0.2-0.4-0.4-0.7-0.5c-0.3-0.1-0.6-0.2-0.9-0.2c-0.4,0-0.7,0.1-1,0.2c-0.3,0.1-0.6,0.4-0.8,0.6c-0.2,0.3-0.4,0.6-0.5,1
		c-0.1,0.4-0.2,0.8-0.2,1.3c0,0.5,0.1,0.9,0.2,1.3c0.1,0.4,0.3,0.7,0.5,1c0.2,0.3,0.5,0.5,0.8,0.6c0.3,0.2,0.6,0.2,1,0.2
		c0.4,0,0.7-0.1,1-0.2s0.6-0.4,0.8-0.6l0.6,0.6c-0.3,0.4-0.7,0.6-1.1,0.8C19.6,24.4,19.1,24.5,18.6,24.5z"/>
	<path d="M22.6,24.4v-7.9h1.9c1.2,0,2.1,0.3,2.7,1c0.6,0.7,0.9,1.6,0.9,2.9c0,1.3-0.3,2.2-0.9,2.9c-0.6,0.7-1.5,1-2.7,1H22.6z
		 M23.6,23.5h0.9c0.9,0,1.6-0.3,2-0.8c0.4-0.6,0.7-1.3,0.7-2.3c0-1-0.2-1.8-0.7-2.3c-0.4-0.5-1.1-0.8-2-0.8h-0.9V23.5z"/>
	<path d="M30.2,24.4v-7.9H35v0.8h-3.9v2.5h3.3v0.9h-3.3v2.9h4v0.9H30.2z"/>
	<path d="M37.6,24.4v-7.9h4.8v0.8h-3.8V20h3.2v0.8h-3.2v3.5H37.6z"/>
	<path d="M47.2,24.5c-0.5,0-1-0.1-1.4-0.3c-0.4-0.2-0.8-0.5-1.1-0.8c-0.3-0.3-0.5-0.8-0.7-1.3c-0.2-0.5-0.3-1.1-0.3-1.7
		c0-0.6,0.1-1.2,0.3-1.7c0.2-0.5,0.4-0.9,0.7-1.3c0.3-0.3,0.7-0.6,1.1-0.8s0.9-0.3,1.4-0.3c0.3,0,0.5,0,0.7,0.1
		c0.2,0.1,0.4,0.1,0.6,0.2c0.2,0.1,0.3,0.2,0.5,0.3c0.1,0.1,0.3,0.2,0.4,0.3l-0.6,0.6c-0.2-0.2-0.4-0.4-0.7-0.5
		c-0.2-0.1-0.6-0.2-0.9-0.2c-0.4,0-0.7,0.1-1,0.2c-0.3,0.1-0.6,0.4-0.8,0.6c-0.2,0.3-0.4,0.6-0.5,1c-0.1,0.4-0.2,0.8-0.2,1.3
		c0,0.5,0.1,0.9,0.2,1.3c0.1,0.4,0.3,0.7,0.5,1c0.2,0.3,0.5,0.5,0.8,0.6s0.6,0.2,1,0.2c0.3,0,0.5,0,0.8-0.1s0.4-0.2,0.6-0.3v-2.1
		h-1.6v-0.8h2.5v3.3c-0.2,0.3-0.6,0.5-1,0.6S47.8,24.5,47.2,24.5z"/>
	<path d="M51.3,24.4v-7.9h1v3.3h3.3v-3.3h1v7.9h-1v-3.7h-3.3v3.7H51.3z"/>
	<path d="M58.7,24.4v-0.9h2v-6.2h-2v-0.8h4.9v0.8h-2v6.2h2v0.9H58.7z"/>
	<path d="M68.1,24.5c-0.4,0-0.9-0.1-1.3-0.3s-0.8-0.5-1-1l0.6-0.6c0.2,0.4,0.5,0.6,0.8,0.8c0.3,0.2,0.6,0.3,0.9,0.3
		c0.6,0,1-0.1,1.2-0.5c0.3-0.3,0.4-0.8,0.4-1.4v-4.4h-3.3v-0.8h4.3v5.4c0,0.4,0,0.7-0.1,1c-0.1,0.3-0.2,0.6-0.4,0.8
		c-0.2,0.2-0.5,0.4-0.8,0.6C69,24.4,68.6,24.5,68.1,24.5z"/>
	<path d="M73.2,24.4v-7.9h1v3.9h0l3.3-3.9h1.1l-2.5,3l2.8,4.9h-1.1l-2.3-4.1l-1.4,1.6v2.5H73.2z"/>
	<path d="M80.8,24.4v-7.9h1v7h3.9v0.9H80.8z"/>
	<path d="M87.3,24.4v-7.9h1.2l1.1,3.4l0.4,1.3h0l0.4-1.3l1.1-3.4h1.2v7.9h-1v-3.9c0-0.2,0-0.4,0-0.7s0-0.5,0-0.8
		c0-0.3,0-0.5,0.1-0.7c0-0.2,0-0.4,0-0.6h0l-0.4,1.5l-1.1,3.1h-0.7l-1.1-3.1l-0.5-1.5h0c0,0.2,0,0.4,0.1,0.6c0,0.2,0,0.5,0.1,0.7
		c0,0.3,0,0.5,0,0.8c0,0.3,0,0.5,0,0.7v3.9H87.3z"/>
	<path d="M94.6,24.4v-7.9h1.1l2.5,4.9l0.8,1.6h0c0-0.4,0-0.8-0.1-1.2c0-0.4-0.1-0.9-0.1-1.3v-4.1h1v7.9h-1.1l-2.5-4.9l-0.8-1.6h0
		c0,0.4,0,0.8,0.1,1.2c0,0.4,0.1,0.8,0.1,1.2v4.1H94.6z"/>
	<path d="M104.4,24.5c-0.4,0-0.9-0.1-1.2-0.3c-0.4-0.2-0.7-0.5-1-0.8c-0.3-0.4-0.5-0.8-0.6-1.3c-0.1-0.5-0.2-1.1-0.2-1.7
		c0-0.6,0.1-1.2,0.2-1.7c0.1-0.5,0.4-0.9,0.6-1.3c0.3-0.3,0.6-0.6,1-0.8c0.4-0.2,0.8-0.3,1.2-0.3c0.4,0,0.8,0.1,1.2,0.3
		c0.4,0.2,0.7,0.4,1,0.8c0.3,0.3,0.5,0.8,0.6,1.3c0.1,0.5,0.2,1.1,0.2,1.7c0,0.6-0.1,1.2-0.2,1.7c-0.1,0.5-0.4,0.9-0.6,1.3
		c-0.3,0.4-0.6,0.6-1,0.8C105.2,24.4,104.8,24.5,104.4,24.5z M104.4,23.6c0.3,0,0.6-0.1,0.8-0.2c0.2-0.1,0.5-0.4,0.6-0.6
		c0.2-0.3,0.3-0.6,0.4-1c0.1-0.4,0.1-0.9,0.1-1.4c0-0.5,0-0.9-0.1-1.3c-0.1-0.4-0.2-0.7-0.4-1s-0.4-0.5-0.6-0.6s-0.5-0.2-0.8-0.2
		c-0.3,0-0.6,0.1-0.8,0.2s-0.5,0.4-0.6,0.6c-0.2,0.3-0.3,0.6-0.4,1c-0.1,0.4-0.1,0.8-0.1,1.3c0,0.5,0,1,0.1,1.4
		c0.1,0.4,0.2,0.7,0.4,1c0.2,0.3,0.4,0.5,0.6,0.6C103.8,23.6,104.1,23.6,104.4,23.6z"/>
	<path d="M109.2,24.4v-7.9h2.4c0.4,0,0.8,0,1.2,0.1c0.4,0.1,0.7,0.2,0.9,0.4c0.3,0.2,0.5,0.4,0.6,0.7s0.2,0.7,0.2,1.1
		c0,0.4-0.1,0.8-0.2,1.1c-0.1,0.3-0.3,0.6-0.6,0.8c-0.3,0.2-0.6,0.4-0.9,0.5c-0.4,0.1-0.8,0.1-1.2,0.1h-1.4v3.1H109.2z M110.2,20.4
		h1.3c0.7,0,1.2-0.1,1.5-0.4c0.3-0.3,0.5-0.7,0.5-1.2c0-0.6-0.2-1-0.5-1.2c-0.3-0.2-0.8-0.3-1.5-0.3h-1.3V20.4z"/>
	<path d="M121,26.3c-0.7,0-1.3-0.2-1.7-0.5c-0.4-0.4-0.8-0.8-0.9-1.3c-0.4-0.1-0.7-0.2-1-0.4c-0.3-0.2-0.6-0.5-0.8-0.8
		c-0.2-0.3-0.4-0.8-0.5-1.2c-0.1-0.5-0.2-1-0.2-1.6c0-0.6,0.1-1.2,0.2-1.7c0.1-0.5,0.3-0.9,0.6-1.3c0.3-0.3,0.6-0.6,0.9-0.8
		c0.4-0.2,0.8-0.3,1.2-0.3s0.9,0.1,1.2,0.3c0.4,0.2,0.7,0.5,0.9,0.8c0.3,0.3,0.5,0.8,0.6,1.3c0.1,0.5,0.2,1.1,0.2,1.7
		c0,0.6-0.1,1.1-0.2,1.6c-0.1,0.5-0.3,0.9-0.5,1.2c-0.2,0.3-0.5,0.6-0.8,0.8c-0.3,0.2-0.6,0.4-1,0.4c0.1,0.3,0.4,0.6,0.6,0.8
		c0.3,0.2,0.6,0.3,1.1,0.3c0.1,0,0.2,0,0.3,0s0.2-0.1,0.3-0.1l0.2,0.8c-0.1,0-0.3,0.1-0.4,0.1C121.3,26.3,121.1,26.3,121,26.3z
		 M118.8,23.7c0.6,0,1.1-0.3,1.4-0.9c0.4-0.6,0.5-1.4,0.5-2.4c0-1-0.2-1.8-0.5-2.3c-0.4-0.6-0.8-0.9-1.4-0.9s-1.1,0.3-1.4,0.9
		c-0.4,0.6-0.5,1.3-0.5,2.3c0,1,0.2,1.8,0.5,2.4C117.7,23.4,118.2,23.7,118.8,23.7z"/>
	<path d="M123.6,24.4v-7.9h2.4c0.4,0,0.8,0,1.1,0.1s0.6,0.2,0.9,0.4s0.4,0.4,0.6,0.7c0.1,0.3,0.2,0.6,0.2,1c0,0.6-0.2,1.1-0.5,1.5
		c-0.3,0.4-0.7,0.6-1.3,0.8l2,3.4h-1.1L126,21h-1.4v3.3H123.6z M124.6,20.2h1.3c0.6,0,1.1-0.1,1.4-0.4s0.5-0.6,0.5-1.1
		c0-0.5-0.2-0.9-0.5-1.1s-0.8-0.3-1.4-0.3h-1.3V20.2z"/>
	<path d="M133.3,24.5c-0.6,0-1.1-0.1-1.6-0.3s-0.9-0.5-1.3-0.9l0.6-0.7c0.3,0.3,0.6,0.5,1,0.7c0.4,0.2,0.8,0.3,1.3,0.3
		c0.5,0,1-0.1,1.3-0.3c0.3-0.2,0.4-0.5,0.4-0.9c0-0.2,0-0.4-0.1-0.5s-0.2-0.3-0.3-0.4c-0.1-0.1-0.3-0.2-0.4-0.3
		c-0.2-0.1-0.4-0.2-0.6-0.3l-1.1-0.5c-0.2-0.1-0.4-0.2-0.6-0.3c-0.2-0.1-0.4-0.2-0.5-0.4c-0.2-0.2-0.3-0.3-0.4-0.6
		c-0.1-0.2-0.2-0.5-0.2-0.8c0-0.3,0.1-0.6,0.2-0.8c0.1-0.3,0.3-0.5,0.5-0.7s0.5-0.3,0.8-0.4s0.7-0.2,1-0.2c0.5,0,1,0.1,1.4,0.3
		c0.4,0.2,0.8,0.4,1.1,0.7l-0.5,0.6c-0.3-0.2-0.5-0.4-0.9-0.5c-0.3-0.1-0.7-0.2-1.1-0.2c-0.5,0-0.8,0.1-1.1,0.3
		c-0.3,0.2-0.4,0.5-0.4,0.8c0,0.2,0,0.4,0.1,0.5s0.2,0.2,0.3,0.3s0.3,0.2,0.4,0.3s0.3,0.1,0.5,0.2l1.1,0.5c0.2,0.1,0.5,0.2,0.7,0.3
		c0.2,0.1,0.4,0.3,0.6,0.4c0.2,0.2,0.3,0.4,0.4,0.6c0.1,0.2,0.1,0.5,0.1,0.8c0,0.3-0.1,0.6-0.2,0.9c-0.1,0.3-0.3,0.5-0.6,0.7
		c-0.2,0.2-0.5,0.4-0.9,0.5C134.1,24.4,133.7,24.5,133.3,24.5z"/>
	<path d="M139.9,24.4v-7h-2.6v-0.8h6.2v0.8h-2.6v7H139.9z"/>
	<path d="M147.6,24.5c-0.4,0-0.7-0.1-1.1-0.2s-0.6-0.3-0.8-0.5s-0.4-0.6-0.6-1c-0.1-0.4-0.2-0.9-0.2-1.4v-4.9h1v4.9
		c0,0.4,0,0.8,0.1,1c0.1,0.3,0.2,0.5,0.3,0.7s0.3,0.3,0.5,0.4c0.2,0.1,0.4,0.1,0.7,0.1s0.5,0,0.7-0.1c0.2-0.1,0.4-0.2,0.5-0.4
		s0.3-0.4,0.4-0.7c0.1-0.3,0.1-0.6,0.1-1v-4.9h1v4.9c0,0.6-0.1,1-0.2,1.4c-0.1,0.4-0.3,0.7-0.5,1s-0.5,0.4-0.8,0.5
		S148,24.5,147.6,24.5z"/>
	<path d="M154.2,24.4l-2.5-7.9h1.1l1.3,4.2c0.1,0.5,0.3,0.9,0.4,1.3c0.1,0.4,0.2,0.8,0.4,1.3h0c0.1-0.2,0.1-0.5,0.2-0.7
		c0.1-0.2,0.1-0.4,0.2-0.6c0.1-0.2,0.1-0.4,0.2-0.6c0.1-0.2,0.1-0.4,0.2-0.7l1.3-4.2h1l-2.5,7.9H154.2z"/>
	<path d="M159.7,24.4l-1.2-7.9h1.1l0.6,4.9c0,0.2,0,0.3,0,0.5s0,0.3,0,0.4c0,0.1,0,0.3,0,0.4s0,0.3,0,0.5h0c0-0.2,0.1-0.4,0.1-0.5
		s0.1-0.3,0.1-0.4c0-0.1,0.1-0.3,0.1-0.4c0-0.1,0.1-0.3,0.1-0.4l0.8-2.9h1l0.7,2.9c0,0.2,0.1,0.3,0.1,0.4c0,0.1,0.1,0.3,0.1,0.4
		c0,0.1,0.1,0.3,0.1,0.4c0,0.2,0.1,0.3,0.1,0.5h0c0-0.2,0-0.4,0-0.5s0-0.3,0-0.4c0-0.1,0-0.3,0-0.4c0-0.1,0-0.3,0-0.4l0.6-5h1.1
		l-1.2,7.9h-1.2l-0.8-3.2c-0.1-0.2-0.1-0.5-0.2-0.7c0-0.2-0.1-0.5-0.1-0.7h0c0,0.2-0.1,0.5-0.1,0.7c0,0.2-0.1,0.5-0.2,0.7l-0.8,3.2
		H159.7z"/>
	<path d="M166.2,24.4l2.4-4.1l-2.2-3.8h1.1l1.1,2c0.1,0.2,0.2,0.4,0.3,0.5c0.1,0.2,0.2,0.4,0.3,0.6h0c0.1-0.2,0.2-0.4,0.3-0.6
		c0.1-0.2,0.2-0.4,0.3-0.5l1.1-2h1.1l-2.2,3.9l2.4,4H171l-1.2-2.1c-0.1-0.2-0.2-0.4-0.3-0.6c-0.1-0.2-0.2-0.4-0.4-0.7h0
		c-0.1,0.2-0.2,0.5-0.3,0.7c-0.1,0.2-0.2,0.4-0.3,0.6l-1.2,2.1H166.2z"/>
	<path d="M175.9,24.4v-2.8l-2.6-5.1h1.1l1.2,2.3c0.2,0.3,0.3,0.6,0.4,0.9s0.3,0.6,0.5,0.9h0c0.2-0.3,0.3-0.6,0.5-0.9
		c0.2-0.3,0.3-0.6,0.5-0.9l1.1-2.3h1l-2.6,5.1v2.8H175.9z"/>
	<path d="M180.8,24.4v-0.6l4.4-6.4h-4v-0.8h5.2v0.6l-4.4,6.4h4.5v0.9H180.8z"/>
</g>
</svg>
