<?xml version="1.0" encoding="utf-8"?>
<!-- Generator: Adobe Illustrator 23.0.2, SVG Export Plug-In . SVG Version: 6.00 Build 0)  -->
<svg version="1.1" id="Layer_1" xmlns="http://www.w3.org/2000/svg" xmlns:xlink="http://www.w3.org/1999/xlink" x="0px" y="0px"
	 viewBox="0 0 50 50" style="enable-background:new 0 0 50 50;" xml:space="preserve">
<g>
	<path d="M3.6,10.1C3.4,10.1,3.2,10,3,9.9S2.7,9.5,2.7,9.2c0-0.3,0.1-0.5,0.3-0.7s0.4-0.2,0.6-0.2c0.2,0,0.4,0.1,0.6,0.2
		c0.2,0.2,0.3,0.4,0.3,0.7c0,0.3-0.1,0.5-0.3,0.7C4,10,3.8,10.1,3.6,10.1z M3.3,7.2L3.1,3l0-1.1h1l0,1.1L3.9,7.2H3.3z"/>
</g>
</svg>
