<?xml version="1.0" encoding="utf-8"?>
<!-- Generator: Adobe Illustrator 23.0.2, SVG Export Plug-In . SVG Version: 6.00 Build 0)  -->
<svg version="1.1" id="Layer_1" xmlns="http://www.w3.org/2000/svg" xmlns:xlink="http://www.w3.org/1999/xlink" x="0px" y="0px"
	 viewBox="0 0 50 50" style="enable-background:new 0 0 50 50;" xml:space="preserve">
<g>
	<path d="M2.2,5.8c-0.3,0-0.6-0.1-0.8-0.4C1.2,5.1,1.1,4.8,1.1,4.3c0-0.6,0.2-1.1,0.5-1.6c0.3-0.5,0.7-0.9,1.3-1.1l0.3,0.6
		C2.8,2.4,2.5,2.6,2.3,2.9C2.1,3.3,2,3.6,2,4C2.1,4,2.2,4,2.3,4c0.2,0,0.4,0.1,0.6,0.2C3,4.4,3.1,4.6,3.1,4.8c0,0.3-0.1,0.5-0.3,0.7
		S2.5,5.8,2.2,5.8z M5,5.8c-0.3,0-0.6-0.1-0.8-0.4C4,5.1,3.9,4.8,3.9,4.3c0-0.6,0.2-1.1,0.5-1.6c0.3-0.5,0.7-0.9,1.3-1.1l0.3,0.6
		C5.6,2.4,5.3,2.6,5.1,2.9C4.8,3.3,4.7,3.6,4.7,4C4.8,4,4.9,4,5,4c0.2,0,0.4,0.1,0.6,0.2c0.2,0.2,0.2,0.4,0.2,0.6
		c0,0.3-0.1,0.5-0.3,0.7S5.2,5.8,5,5.8z"/>
</g>
</svg>
