<?xml version="1.0" encoding="utf-8"?>
<!-- Generator: Adobe Illustrator 23.0.2, SVG Export Plug-In . SVG Version: 6.00 Build 0)  -->
<svg version="1.1" id="Layer_1" xmlns="http://www.w3.org/2000/svg" xmlns:xlink="http://www.w3.org/1999/xlink" x="0px" y="0px"
	 viewBox="0 0 50 50" style="enable-background:new 0 0 50 50;" xml:space="preserve">
<g>
	<path d="M1,8.6l0.5-0.7c0.3,0.2,0.6,0.4,1,0.6c0.4,0.2,0.8,0.2,1.2,0.2c0.5,0,0.8-0.1,1.1-0.3C5,8.2,5.2,8,5.2,7.7
		c0-0.2-0.1-0.5-0.3-0.6C4.7,6.9,4.5,6.8,4.2,6.6C3.9,6.5,3.6,6.4,3.3,6.3C2.9,6.1,2.6,6,2.4,5.8C2.1,5.7,1.8,5.5,1.6,5.3
		S1.4,4.7,1.4,4.4c0-0.5,0.2-0.9,0.5-1.2s0.8-0.5,1.4-0.6V1H4v1.6c0.4,0,0.8,0.1,1.1,0.3C5.4,3,5.7,3.2,5.9,3.5L5.4,4
		C5.3,3.9,5.1,3.8,5,3.8C4.9,3.7,4.8,3.6,4.6,3.5C4.5,3.5,4.3,3.4,4.2,3.4c-0.2,0-0.3,0-0.5,0c-0.4,0-0.7,0.1-1,0.3
		C2.4,3.8,2.3,4.1,2.3,4.4c0,0.2,0.1,0.4,0.3,0.6C2.8,5.1,3,5.2,3.3,5.3c0.3,0.1,0.6,0.2,0.9,0.4s0.6,0.3,0.9,0.4
		c0.3,0.2,0.5,0.4,0.7,0.6C6,6.9,6.1,7.3,6.1,7.6c0,0.3-0.1,0.5-0.1,0.7C5.9,8.6,5.8,8.7,5.6,8.9S5.1,9.2,4.9,9.3
		C4.6,9.4,4.3,9.5,4,9.5v1.8H3.3V9.5C2.9,9.5,2.4,9.4,2,9.2C1.6,9,1.3,8.8,1,8.6z"/>
</g>
</svg>
