<?xml version="1.0" encoding="utf-8"?>
<!-- Generator: Adobe Illustrator 23.0.2, SVG Export Plug-In . SVG Version: 6.00 Build 0)  -->
<svg version="1.1" id="Layer_1" xmlns="http://www.w3.org/2000/svg" xmlns:xlink="http://www.w3.org/1999/xlink" x="0px" y="0px"
	 viewBox="0 0 50 50" style="enable-background:new 0 0 50 50;" xml:space="preserve">
<g>
	<path d="M2,6.1c-0.5,0-0.9-0.2-1.2-0.5S0.3,4.7,0.3,4.1c0-0.6,0.2-1.1,0.5-1.4C1.1,2.3,1.5,2.2,2,2.2s0.9,0.2,1.2,0.5
		C3.5,3,3.7,3.5,3.7,4.1c0,0.6-0.2,1.1-0.5,1.5S2.5,6.1,2,6.1z M0.9,9.6L0.3,9l2.2-2.3l0.4,0.4L0.9,9.6z M2,5.5
		c0.3,0,0.5-0.1,0.7-0.3s0.3-0.6,0.3-1.1c0-0.5-0.1-0.8-0.3-1C2.5,2.9,2.3,2.7,2,2.7S1.5,2.9,1.3,3.1c-0.2,0.2-0.3,0.6-0.3,1
		c0,0.5,0.1,0.8,0.3,1.1C1.5,5.4,1.7,5.5,2,5.5z M5.2,10.1c-0.5,0-0.9-0.2-1.2-0.5S3.5,8.7,3.5,8.1S3.7,7,4,6.7s0.7-0.5,1.2-0.5
		c0.5,0,0.9,0.2,1.2,0.5s0.5,0.8,0.5,1.4S6.7,9.2,6.4,9.6S5.7,10.1,5.2,10.1z M4.7,5.3L4.3,4.9l2-2.4L6.9,3L4.7,5.3z M5.2,9.5
		c0.3,0,0.5-0.1,0.7-0.3c0.2-0.2,0.3-0.6,0.3-1.1c0-0.5-0.1-0.8-0.3-1C5.7,6.9,5.5,6.7,5.2,6.7C5,6.7,4.7,6.9,4.5,7.1
		c-0.2,0.2-0.3,0.6-0.3,1c0,0.5,0.1,0.8,0.3,1.1S5,9.5,5.2,9.5z"/>
</g>
</svg>
