<?xml version="1.0" encoding="utf-8"?>
<!-- Generator: Adobe Illustrator 23.0.2, SVG Export Plug-In . SVG Version: 6.00 Build 0)  -->
<svg version="1.1" id="Layer_1" xmlns="http://www.w3.org/2000/svg" xmlns:xlink="http://www.w3.org/1999/xlink" x="0px" y="0px"
	 viewBox="0 0 50 50" style="enable-background:new 0 0 50 50;" xml:space="preserve">
<g>
	<path d="M2.9,10.1c-0.4,0-0.7-0.1-1-0.2S1.4,9.7,1.2,9.5C1,9.3,0.8,9.1,0.7,8.8C0.6,8.5,0.5,8.2,0.5,7.9c0-0.3,0-0.5,0.1-0.7
		S0.8,6.8,1,6.6c0.1-0.2,0.3-0.3,0.5-0.5C1.6,6,1.8,5.8,2,5.7C1.8,5.3,1.7,5,1.6,4.7C1.5,4.4,1.5,4.1,1.5,3.8c0-0.3,0-0.5,0.1-0.7
		c0.1-0.2,0.2-0.4,0.3-0.6s0.3-0.3,0.5-0.4C2.7,2,2.9,1.9,3.2,1.9c0.5,0,0.9,0.1,1.1,0.4C4.6,2.7,4.7,3,4.7,3.5
		c0,0.3-0.1,0.5-0.1,0.7C4.5,4.4,4.3,4.6,4.2,4.8C4,5,3.8,5.2,3.6,5.3C3.4,5.5,3.2,5.6,3,5.8C3.3,6.2,3.6,6.6,3.9,7s0.7,0.7,1,1
		C5.2,7.7,5.4,7.3,5.5,7c0.2-0.4,0.3-0.8,0.4-1.3h0.9c-0.1,0.5-0.3,1-0.5,1.5C6.1,7.7,5.9,8.1,5.6,8.5C6,8.9,6.5,9.2,6.9,9.3
		l-0.3,0.8C6.1,9.9,5.6,9.6,5,9.2C4.7,9.5,4.4,9.7,4,9.9C3.7,10,3.3,10.1,2.9,10.1z M3,9.3c0.2,0,0.5-0.1,0.7-0.2s0.5-0.3,0.7-0.5
		C4,8.4,3.6,8,3.3,7.6C2.9,7.2,2.6,6.8,2.4,6.3C2.1,6.6,1.9,6.8,1.7,7S1.5,7.6,1.5,7.9c0,0.2,0,0.4,0.1,0.6c0.1,0.2,0.2,0.3,0.3,0.5
		C2,9,2.2,9.1,2.4,9.2C2.6,9.3,2.8,9.3,3,9.3z M2.3,3.8c0,0.2,0,0.4,0.1,0.7c0.1,0.2,0.2,0.5,0.3,0.7C2.8,5.1,3,4.9,3.1,4.8
		c0.1-0.1,0.3-0.3,0.4-0.4C3.6,4.3,3.7,4.1,3.8,4c0.1-0.1,0.1-0.3,0.1-0.5c0-0.2-0.1-0.4-0.2-0.6C3.6,2.7,3.4,2.7,3.2,2.7
		C2.9,2.7,2.7,2.8,2.5,3C2.4,3.2,2.3,3.5,2.3,3.8z"/>
</g>
</svg>
