<?xml version="1.0" encoding="utf-8"?>
<!-- Generator: Adobe Illustrator 23.0.2, SVG Export Plug-In . SVG Version: 6.00 Build 0)  -->
<svg version="1.1" id="Layer_1" xmlns="http://www.w3.org/2000/svg" xmlns:xlink="http://www.w3.org/1999/xlink" x="0px" y="0px"
	 viewBox="0 0 50 50" style="enable-background:new 0 0 50 50;" xml:space="preserve">
<g>
	<path d="M3.6,5.8C3.3,5.8,3,5.6,2.8,5.4S2.5,4.8,2.5,4.3c0-0.6,0.2-1.1,0.5-1.6s0.7-0.9,1.3-1.1l0.3,0.6C4.2,2.4,3.9,2.6,3.7,2.9
		C3.5,3.3,3.3,3.6,3.3,4C3.4,4,3.5,4,3.6,4c0.2,0,0.4,0.1,0.6,0.2c0.2,0.2,0.2,0.4,0.2,0.6c0,0.3-0.1,0.5-0.3,0.7S3.8,5.8,3.6,5.8z"
		/>
</g>
</svg>
