<?xml version="1.0" encoding="utf-8"?>
<!-- Generator: Adobe Illustrator 23.0.2, SVG Export Plug-In . SVG Version: 6.00 Build 0)  -->
<svg version="1.1" id="Layer_1" xmlns="http://www.w3.org/2000/svg" xmlns:xlink="http://www.w3.org/1999/xlink" x="0px" y="0px"
	 viewBox="0 0 50 50" style="enable-background:new 0 0 50 50;" xml:space="preserve">
<g>
	<path d="M3.6,10.1c-0.9,0-1.5-0.3-2-1c-0.5-0.7-0.7-1.7-0.7-3c0-1.3,0.2-2.3,0.7-2.9c0.5-0.7,1.2-1,2-1c0.9,0,1.5,0.3,2,1
		c0.5,0.7,0.7,1.7,0.7,2.9c0,1.3-0.2,2.3-0.7,3C5.1,9.8,4.5,10.1,3.6,10.1z M3.6,9.3c0.5,0,1-0.3,1.3-0.8C5.3,8,5.4,7.2,5.4,6.1
		c0-0.6,0-1-0.1-1.4S5.1,4,4.9,3.7C4.8,3.4,4.6,3.3,4.3,3.1C4.1,3,3.9,3,3.6,3C3.3,3,3.1,3,2.9,3.1C2.6,3.3,2.4,3.4,2.3,3.7
		C2.1,4,2,4.3,1.9,4.7C1.8,5.1,1.8,5.6,1.8,6.1c0,1.1,0.2,1.9,0.5,2.4C2.6,9.1,3.1,9.3,3.6,9.3z M3.6,6.8c-0.2,0-0.4-0.1-0.5-0.2
		C2.9,6.5,2.9,6.3,2.9,6c0-0.2,0.1-0.4,0.2-0.6c0.1-0.1,0.3-0.2,0.5-0.2c0.2,0,0.4,0.1,0.5,0.2C4.3,5.6,4.3,5.8,4.3,6
		c0,0.3-0.1,0.5-0.2,0.6C4,6.8,3.8,6.8,3.6,6.8z"/>
</g>
</svg>
