<?xml version="1.0" encoding="utf-8"?>
<!-- Generator: Adobe Illustrator 23.0.2, SVG Export Plug-In . SVG Version: 6.00 Build 0)  -->
<svg version="1.1" id="Layer_1" xmlns="http://www.w3.org/2000/svg" xmlns:xlink="http://www.w3.org/1999/xlink" x="0px" y="0px"
	 viewBox="0 0 50 50" style="enable-background:new 0 0 50 50;" xml:space="preserve">
<g>
	<path d="M0.9,10V9.4c0.6-0.6,1.2-1.1,1.7-1.6c0.5-0.5,0.9-0.9,1.3-1.3c0.3-0.4,0.6-0.8,0.8-1.1c0.2-0.3,0.3-0.7,0.3-1
		c0-0.4-0.1-0.8-0.4-1.1C4.2,3.1,3.8,3,3.2,3c-0.4,0-0.7,0.1-1,0.3C1.9,3.4,1.6,3.6,1.4,3.9L0.8,3.3C1.2,3,1.5,2.7,1.9,2.5
		s0.9-0.3,1.4-0.3c0.4,0,0.7,0.1,1,0.2C4.7,2.4,5,2.6,5.2,2.8C5.4,3,5.6,3.2,5.7,3.5c0.1,0.3,0.2,0.6,0.2,0.9c0,0.4-0.1,0.7-0.3,1.1
		C5.4,5.9,5.2,6.2,4.9,6.6C4.5,7,4.2,7.4,3.7,7.8C3.3,8.3,2.8,8.7,2.3,9.2c0.2,0,0.5,0,0.7,0c0.2,0,0.5,0,0.7,0h2.5V10H0.9z"/>
</g>
</svg>
