<?xml version="1.0" encoding="utf-8"?>
<!-- Generator: Adobe Illustrator 23.0.2, SVG Export Plug-In . SVG Version: 6.00 Build 0)  -->
<svg version="1.1" id="Layer_1" xmlns="http://www.w3.org/2000/svg" xmlns:xlink="http://www.w3.org/1999/xlink" x="0px" y="0px"
	 viewBox="0 0 50 50" style="enable-background:new 0 0 50 50;" xml:space="preserve">
<g>
	<path d="M3.4,10.1c-0.7,0-1.2-0.1-1.7-0.3C1.3,9.6,1,9.3,0.7,9l0.5-0.6C1.4,8.6,1.8,8.8,2.1,9c0.4,0.2,0.8,0.3,1.3,0.3
		c0.3,0,0.5,0,0.7-0.1C4.3,9.1,4.5,9,4.7,8.9C4.9,8.8,5,8.6,5.1,8.5c0.1-0.2,0.1-0.4,0.1-0.6c0-0.2-0.1-0.4-0.2-0.6S4.8,6.9,4.6,6.8
		C4.4,6.6,4.1,6.5,3.7,6.5C3.4,6.4,2.9,6.4,2.4,6.4V5.6c0.5,0,0.8,0,1.2-0.1c0.3-0.1,0.6-0.2,0.8-0.3c0.2-0.1,0.3-0.3,0.4-0.5
		c0.1-0.2,0.1-0.4,0.1-0.6c0-0.4-0.1-0.7-0.4-0.9C4.2,3.1,3.9,3,3.4,3C3,3,2.7,3,2.4,3.2C2,3.3,1.8,3.5,1.5,3.7L1,3.1
		c0.3-0.3,0.7-0.5,1.1-0.7c0.4-0.2,0.9-0.3,1.4-0.3c0.4,0,0.7,0,1,0.1S5,2.5,5.2,2.7S5.6,3,5.8,3.3C5.9,3.5,6,3.8,6,4.1
		c0,0.5-0.2,0.8-0.5,1.1C5.2,5.5,4.8,5.8,4.3,5.9v0C4.6,6,4.8,6.1,5,6.2c0.2,0.1,0.4,0.2,0.6,0.4C5.8,6.8,6,7,6.1,7.2
		c0.1,0.2,0.1,0.5,0.1,0.7c0,0.3-0.1,0.6-0.2,0.9S5.7,9.3,5.4,9.5C5.2,9.7,4.9,9.9,4.5,10C4.2,10.1,3.8,10.1,3.4,10.1z"/>
</g>
</svg>
