<?xml version="1.0" encoding="utf-8"?>
<!-- Generator: Adobe Illustrator 23.0.2, SVG Export Plug-In . SVG Version: 6.00 Build 0)  -->
<svg version="1.1" id="Layer_1" xmlns="http://www.w3.org/2000/svg" xmlns:xlink="http://www.w3.org/1999/xlink" x="0px" y="0px"
	 viewBox="0 0 50 50" style="enable-background:new 0 0 50 50;" xml:space="preserve">
<g>
	<path d="M3.4,10.1c-0.3,0-0.7,0-0.9-0.1C2.2,10,2,9.9,1.8,9.8C1.5,9.7,1.3,9.6,1.2,9.5C1,9.3,0.8,9.2,0.7,9.1l0.5-0.6
		c0.1,0.1,0.3,0.2,0.4,0.3C1.7,8.9,1.9,8.9,2,9s0.4,0.1,0.6,0.2c0.2,0,0.4,0.1,0.7,0.1c0.3,0,0.5,0,0.8-0.1S4.5,9,4.7,8.8
		C4.9,8.7,5,8.5,5.1,8.3C5.2,8,5.3,7.8,5.3,7.5c0-0.5-0.2-0.9-0.5-1.2C4.4,6,4,5.9,3.4,5.9c-0.3,0-0.6,0-0.8,0.1S2.1,6.2,1.8,6.3
		L1.3,6l0.3-3.7h4.3v0.9H2.4L2.2,5.4c0.2-0.1,0.4-0.2,0.7-0.2c0.2-0.1,0.5-0.1,0.8-0.1c0.4,0,0.7,0,1,0.1C5,5.4,5.3,5.5,5.5,5.7
		c0.2,0.2,0.4,0.4,0.6,0.7c0.1,0.3,0.2,0.7,0.2,1.1c0,0.4-0.1,0.8-0.2,1.1C5.9,8.9,5.7,9.2,5.4,9.4C5.1,9.6,4.8,9.8,4.5,9.9
		C4.2,10,3.8,10.1,3.4,10.1z"/>
</g>
</svg>
