<?xml version="1.0" encoding="utf-8"?>
<!-- Generator: Adobe Illustrator 23.0.2, SVG Export Plug-In . SVG Version: 6.00 Build 0)  -->
<svg version="1.1" id="Layer_1" xmlns="http://www.w3.org/2000/svg" xmlns:xlink="http://www.w3.org/1999/xlink" x="0px" y="0px"
	 viewBox="0 0 50 50" style="enable-background:new 0 0 50 50;" xml:space="preserve">
<g>
	<path d="M3.9,10.1C3.4,10.1,3,10,2.7,9.9S2,9.5,1.8,9.2C1.5,8.9,1.3,8.5,1.1,8S0.9,7,0.9,6.4c0-0.8,0.1-1.4,0.3-2
		c0.2-0.5,0.4-1,0.7-1.3c0.3-0.3,0.6-0.6,1-0.7c0.4-0.2,0.8-0.2,1.2-0.2c0.5,0,0.9,0.1,1.2,0.2C5.7,2.5,6,2.7,6.3,3L5.7,3.6
		C5.5,3.4,5.3,3.3,5,3.1C4.8,3,4.5,3,4.2,3C3.9,3,3.6,3,3.3,3.2C3,3.3,2.8,3.5,2.6,3.7C2.4,4,2.2,4.3,2.1,4.7
		C1.9,5.1,1.9,5.7,1.8,6.3c0.3-0.3,0.7-0.5,1-0.7C3.3,5.4,3.6,5.3,4,5.3c0.4,0,0.7,0.1,1,0.2s0.5,0.2,0.8,0.4C6,6.1,6.1,6.3,6.2,6.6
		c0.1,0.3,0.2,0.6,0.2,1c0,0.4-0.1,0.7-0.2,1C6.1,8.9,5.9,9.2,5.6,9.4C5.4,9.6,5.1,9.8,4.8,9.9C4.5,10,4.2,10.1,3.9,10.1z M3.9,9.3
		c0.2,0,0.4,0,0.6-0.1C4.7,9.1,4.9,9,5,8.9c0.1-0.1,0.3-0.3,0.3-0.5s0.1-0.4,0.1-0.7c0-0.5-0.1-0.9-0.4-1.2C4.8,6.2,4.4,6,3.8,6
		c-0.3,0-0.6,0.1-1,0.2c-0.3,0.2-0.7,0.4-1,0.8C2,7.8,2.2,8.4,2.5,8.7C2.8,9.1,3.3,9.3,3.9,9.3z"/>
</g>
</svg>
