<?xml version="1.0" encoding="utf-8"?>
<!-- Generator: Adobe Illustrator 23.0.2, SVG Export Plug-In . SVG Version: 6.00 Build 0)  -->
<svg version="1.1" id="Layer_1" xmlns="http://www.w3.org/2000/svg" xmlns:xlink="http://www.w3.org/1999/xlink" x="0px" y="0px"
	 viewBox="0 0 50 50" style="enable-background:new 0 0 50 50;" xml:space="preserve">
<g>
	<path d="M3.6,10.1c-0.4,0-0.8-0.1-1.2-0.2C2.1,9.8,1.8,9.7,1.6,9.5C1.3,9.3,1.1,9.1,1,8.8C0.9,8.6,0.8,8.3,0.8,8
		c0-0.3,0-0.5,0.1-0.7s0.2-0.4,0.4-0.6s0.3-0.3,0.5-0.4C2,6.2,2.3,6.1,2.5,6v0C2.1,5.7,1.9,5.5,1.6,5.2c-0.2-0.3-0.3-0.6-0.3-1
		c0-0.3,0.1-0.6,0.2-0.8C1.6,3.1,1.8,2.9,2,2.7s0.5-0.3,0.8-0.4C3,2.2,3.3,2.2,3.7,2.2c0.4,0,0.7,0,1,0.1s0.5,0.2,0.7,0.4
		c0.2,0.2,0.4,0.4,0.5,0.6S6,3.9,6,4.2c0,0.4-0.1,0.7-0.3,1C5.5,5.5,5.2,5.8,4.9,6v0c0.2,0.1,0.4,0.2,0.6,0.3
		c0.2,0.1,0.3,0.3,0.5,0.4C6.1,7,6.2,7.1,6.3,7.4s0.1,0.4,0.1,0.7c0,0.3-0.1,0.6-0.2,0.8S5.9,9.3,5.7,9.5S5.1,9.8,4.8,9.9
		C4.5,10.1,4.1,10.1,3.6,10.1z M3.6,9.4c0.6,0,1-0.1,1.3-0.4c0.3-0.2,0.5-0.6,0.5-1c0-0.3-0.1-0.5-0.2-0.7C5.1,7.2,4.9,7,4.7,6.9
		S4.3,6.7,4,6.6S3.4,6.4,3,6.2C2.6,6.4,2.3,6.7,2.1,6.9c-0.2,0.3-0.4,0.6-0.4,1c0,0.4,0.2,0.8,0.5,1.1C2.6,9.2,3.1,9.4,3.6,9.4z
		 M4.2,5.8c0.6-0.5,1-1,1-1.5c0-0.4-0.1-0.7-0.4-1C4.5,3,4.1,2.9,3.6,2.9c-0.4,0-0.8,0.1-1,0.3C2.3,3.5,2.2,3.8,2.2,4.1
		c0,0.2,0.1,0.4,0.2,0.6S2.6,5,2.8,5.2C3,5.3,3.2,5.4,3.4,5.5S3.9,5.7,4.2,5.8z"/>
</g>
</svg>
