<?xml version="1.0" encoding="utf-8"?>
<!-- Generator: Adobe Illustrator 23.0.2, SVG Export Plug-In . SVG Version: 6.00 Build 0)  -->
<svg version="1.1" id="Layer_1" xmlns="http://www.w3.org/2000/svg" xmlns:xlink="http://www.w3.org/1999/xlink" x="0px" y="0px"
	 viewBox="0 0 50 50" style="enable-background:new 0 0 50 50;" xml:space="preserve">
<g>
	<path d="M3.1,10.1c-0.5,0-0.9-0.1-1.2-0.2S1.2,9.5,0.9,9.3l0.6-0.6C1.7,8.9,1.9,9,2.2,9.1C2.4,9.2,2.7,9.3,3,9.3
		c0.3,0,0.6-0.1,0.9-0.2C4.2,9,4.4,8.8,4.6,8.6C4.8,8.3,5,8,5.1,7.5C5.3,7.1,5.3,6.6,5.4,6C5,6.3,4.7,6.5,4.3,6.7C4,6.9,3.6,7,3.2,7
		c-0.4,0-0.7,0-1-0.1S1.7,6.6,1.5,6.4C1.3,6.2,1.1,5.9,1,5.7C0.9,5.4,0.8,5,0.8,4.6c0-0.4,0.1-0.7,0.2-1c0.1-0.3,0.3-0.6,0.6-0.8
		c0.2-0.2,0.5-0.4,0.8-0.5s0.6-0.2,1-0.2c0.4,0,0.8,0.1,1.2,0.2c0.4,0.2,0.7,0.4,0.9,0.7c0.3,0.3,0.5,0.7,0.6,1.2s0.2,1,0.2,1.6
		c0,0.8-0.1,1.4-0.3,2s-0.4,1-0.7,1.3C5,9.5,4.7,9.7,4.3,9.9C3.9,10,3.5,10.1,3.1,10.1z M3.4,6.2c0.3,0,0.6-0.1,1-0.2
		c0.3-0.2,0.7-0.4,1-0.8C5.2,4.5,5,3.9,4.7,3.5C4.4,3.1,3.9,2.9,3.4,2.9c-0.2,0-0.4,0-0.6,0.1C2.5,3.1,2.4,3.3,2.2,3.4
		C2.1,3.6,2,3.7,1.9,3.9S1.7,4.4,1.7,4.6c0,0.5,0.1,0.9,0.4,1.2C2.4,6.1,2.8,6.2,3.4,6.2z"/>
</g>
</svg>
