<?xml version="1.0" encoding="utf-8"?>
<!-- Generator: Adobe Illustrator 23.0.2, SVG Export Plug-In . SVG Version: 6.00 Build 0)  -->
<svg version="1.1" id="Layer_1" xmlns="http://www.w3.org/2000/svg" xmlns:xlink="http://www.w3.org/1999/xlink" x="0px" y="0px"
	 viewBox="0 0 50 50" style="enable-background:new 0 0 50 50;" xml:space="preserve">
<g>
	<path d="M2.6,12.5l-0.3-0.6c0.5-0.2,0.9-0.5,1.1-0.8c0.2-0.3,0.4-0.7,0.4-1.2c0,0-0.1,0-0.1,0c0,0-0.1,0-0.1,0
		C3.4,9.9,3.2,9.8,3,9.7S2.7,9.3,2.7,9c0-0.3,0.1-0.5,0.3-0.7c0.2-0.2,0.4-0.2,0.7-0.2c0.4,0,0.6,0.1,0.8,0.4
		c0.2,0.3,0.3,0.6,0.3,1.1c0,0.7-0.2,1.3-0.6,1.8C3.8,11.9,3.3,12.3,2.6,12.5z M3.6,5.8c-0.3,0-0.5-0.1-0.7-0.3
		C2.7,5.3,2.6,5.1,2.6,4.8c0-0.3,0.1-0.5,0.3-0.7c0.2-0.2,0.4-0.3,0.7-0.3s0.5,0.1,0.7,0.3s0.3,0.4,0.3,0.7c0,0.3-0.1,0.5-0.3,0.7
		C4.1,5.7,3.9,5.8,3.6,5.8z"/>
</g>
</svg>
