<?xml version="1.0" encoding="utf-8"?>
<!-- Generator: Adobe Illustrator 23.0.2, SVG Export Plug-In . SVG Version: 6.00 Build 0)  -->
<svg version="1.1" id="Layer_1" xmlns="http://www.w3.org/2000/svg" xmlns:xlink="http://www.w3.org/1999/xlink" x="0px" y="0px"
	 viewBox="0 0 50 50" style="enable-background:new 0 0 50 50;" xml:space="preserve">
<g>
	<path d="M2.9,7.2c0-0.3,0-0.5,0-0.8C3,6.2,3.1,6,3.3,5.8c0.1-0.2,0.3-0.4,0.5-0.5C3.9,5.1,4.1,5,4.2,4.8c0.2-0.2,0.3-0.3,0.4-0.5
		C4.7,4.2,4.8,4,4.8,3.8c0-0.3-0.1-0.6-0.3-0.8c-0.2-0.2-0.5-0.3-1-0.3c-0.3,0-0.6,0.1-0.8,0.2C2.4,2.9,2.1,3.1,1.9,3.3L1.3,2.7
		c0.3-0.3,0.6-0.5,1-0.7c0.4-0.2,0.8-0.3,1.2-0.3c0.3,0,0.6,0,0.9,0.1C4.7,2,4.9,2.1,5.1,2.3c0.2,0.2,0.3,0.4,0.5,0.6
		s0.2,0.5,0.2,0.8c0,0.3-0.1,0.5-0.2,0.7S5.3,4.8,5.2,4.9C5,5.1,4.9,5.3,4.7,5.4C4.5,5.6,4.3,5.8,4.2,5.9S3.9,6.3,3.8,6.5
		C3.8,6.7,3.7,6.9,3.8,7.2H2.9z M3.4,10.1C3.2,10.1,3,10,2.8,9.9S2.6,9.5,2.6,9.2c0-0.3,0.1-0.5,0.3-0.7s0.4-0.2,0.6-0.2
		c0.2,0,0.4,0.1,0.6,0.2c0.2,0.2,0.3,0.4,0.3,0.7c0,0.3-0.1,0.5-0.3,0.7C3.9,10,3.7,10.1,3.4,10.1z"/>
</g>
</svg>
