<?xml version="1.0" encoding="utf-8"?>
<!-- Generator: Adobe Illustrator 23.0.2, SVG Export Plug-In . SVG Version: 6.00 Build 0)  -->
<svg version="1.1" id="Layer_1" xmlns="http://www.w3.org/2000/svg" xmlns:xlink="http://www.w3.org/1999/xlink" x="0px" y="0px"
	 viewBox="0 0 50 50" style="enable-background:new 0 0 50 50;" xml:space="preserve">
<g>
	<path d="M4.1,11.7c-0.5,0-0.9-0.1-1.3-0.3c-0.4-0.2-0.8-0.5-1.1-0.9S1.1,9.6,0.9,9C0.7,8.4,0.6,7.7,0.6,7s0.1-1.4,0.3-2
		C1,4.4,1.3,3.9,1.6,3.5c0.3-0.4,0.7-0.7,1.1-0.9c0.4-0.2,0.9-0.3,1.4-0.3c0.4,0,0.8,0.1,1.1,0.2C5.5,2.7,5.8,2.9,6,3.2
		c0.2,0.3,0.3,0.6,0.4,0.9s0.1,0.7,0.1,1.1v3.6H6L5.9,8.1h0C5.6,8.3,5.4,8.5,5.1,8.7S4.5,8.9,4.2,8.9c-0.2,0-0.4,0-0.6-0.1
		C3.4,8.7,3.3,8.6,3.1,8.5C3,8.3,2.9,8.2,2.8,8C2.7,7.8,2.7,7.6,2.7,7.3c0-0.6,0.3-1.1,0.8-1.4s1.3-0.5,2.4-0.7V5.1
		c0-0.3,0-0.6-0.1-0.8C5.7,4,5.6,3.8,5.4,3.6S5.1,3.3,4.9,3.2C4.6,3.1,4.4,3,4.1,3C3.7,3,3.4,3.1,3,3.3C2.7,3.4,2.4,3.7,2.2,4
		S1.7,4.8,1.6,5.3S1.3,6.3,1.3,7c0,0.6,0.1,1.2,0.2,1.7S1.9,9.6,2.1,10c0.2,0.3,0.5,0.6,0.9,0.8C3.4,10.9,3.7,11,4.1,11
		c0.4,0,0.7,0,0.9-0.1c0.3-0.1,0.5-0.2,0.8-0.4L6.1,11c-0.3,0.2-0.6,0.4-1,0.5C4.9,11.6,4.5,11.7,4.1,11.7z M4.4,8.2
		c0.4,0,0.9-0.3,1.3-0.8V5.9C5,6,4.4,6.2,4,6.4C3.7,6.6,3.5,6.9,3.5,7.3c0,0.3,0.1,0.5,0.3,0.7C3.9,8.1,4.1,8.2,4.4,8.2z"/>
</g>
</svg>
