<?xml version="1.0" encoding="utf-8"?>
<!-- Generator: Adobe Illustrator 23.0.2, SVG Export Plug-In . SVG Version: 6.00 Build 0)  -->
<svg version="1.1" id="Layer_1" xmlns="http://www.w3.org/2000/svg" xmlns:xlink="http://www.w3.org/1999/xlink" x="0px" y="0px"
	 viewBox="0 0 50 50" style="enable-background:new 0 0 50 50;" xml:space="preserve">
<g>
	<path d="M1.2,10V2.1h2.2c0.4,0,0.8,0,1.1,0.1c0.3,0.1,0.6,0.2,0.9,0.3c0.2,0.2,0.4,0.4,0.6,0.6C6.1,3.4,6.1,3.7,6.1,4
		c0,0.4-0.1,0.7-0.3,1.1c-0.2,0.3-0.6,0.5-1,0.7v0c0.6,0.1,1,0.3,1.3,0.6s0.5,0.7,0.5,1.3c0,0.4-0.1,0.7-0.2,1S6,9.2,5.7,9.4
		C5.5,9.6,5.2,9.7,4.8,9.8C4.4,9.9,4,10,3.6,10H1.2z M2.2,5.4h1.1c0.7,0,1.2-0.1,1.4-0.3c0.3-0.2,0.4-0.5,0.4-1
		c0-0.4-0.2-0.7-0.5-0.9S3.9,2.9,3.3,2.9H2.2V5.4z M2.2,9.1h1.3C4.1,9.1,4.7,9,5,8.8c0.4-0.2,0.6-0.6,0.6-1.2c0-0.5-0.2-0.8-0.5-1
		S4.2,6.2,3.5,6.2H2.2V9.1z"/>
</g>
</svg>
