<?xml version="1.0" encoding="utf-8"?>
<!-- Generator: Adobe Illustrator 23.0.2, SVG Export Plug-In . SVG Version: 6.00 Build 0)  -->
<svg version="1.1" id="Layer_1" xmlns="http://www.w3.org/2000/svg" xmlns:xlink="http://www.w3.org/1999/xlink" x="0px" y="0px"
	 viewBox="0 0 50 50" style="enable-background:new 0 0 50 50;" xml:space="preserve">
<g>
	<path d="M4.2,10.1c-0.5,0-0.9-0.1-1.4-0.3C2.4,9.6,2.1,9.4,1.8,9C1.5,8.7,1.2,8.3,1,7.7C0.9,7.2,0.8,6.7,0.8,6
		c0-0.6,0.1-1.2,0.3-1.7S1.5,3.4,1.8,3s0.7-0.6,1.1-0.8s0.9-0.3,1.4-0.3c0.5,0,0.9,0.1,1.3,0.3c0.4,0.2,0.7,0.4,0.9,0.7L5.9,3.5
		C5.7,3.3,5.5,3.1,5.2,3C4.9,2.9,4.6,2.8,4.3,2.8c-0.4,0-0.7,0.1-1,0.2C3,3.2,2.7,3.4,2.5,3.7C2.3,4,2.1,4.3,2,4.7
		C1.9,5.1,1.8,5.5,1.8,6c0,0.5,0.1,0.9,0.2,1.3c0.1,0.4,0.3,0.7,0.5,1C2.7,8.6,3,8.8,3.3,9c0.3,0.2,0.6,0.2,1,0.2
		c0.4,0,0.7-0.1,1-0.2s0.6-0.4,0.8-0.6L6.6,9C6.3,9.3,6,9.6,5.6,9.8C5.2,10,4.7,10.1,4.2,10.1z"/>
</g>
</svg>
