<?xml version="1.0" encoding="utf-8"?>
<!-- Generator: Adobe Illustrator 23.0.2, SVG Export Plug-In . SVG Version: 6.00 Build 0)  -->
<svg version="1.1" id="Layer_1" xmlns="http://www.w3.org/2000/svg" xmlns:xlink="http://www.w3.org/1999/xlink" x="0px" y="0px"
	 viewBox="0 0 50 50" style="enable-background:new 0 0 50 50;" xml:space="preserve">
<g>
	<path d="M1,10V2.1H3c1.2,0,2.1,0.3,2.7,1C6.3,3.8,6.6,4.7,6.6,6c0,1.3-0.3,2.2-0.9,2.9C5.1,9.6,4.2,10,3,10H1z M2,9.1h0.9
		c0.9,0,1.6-0.3,2-0.8C5.4,7.8,5.6,7,5.6,6c0-1-0.2-1.8-0.7-2.3c-0.4-0.5-1.1-0.8-2-0.8H2V9.1z"/>
</g>
</svg>
