<?xml version="1.0" encoding="utf-8"?>
<!-- Generator: Adobe Illustrator 23.0.2, SVG Export Plug-In . SVG Version: 6.00 Build 0)  -->
<svg version="1.1" id="Layer_1" xmlns="http://www.w3.org/2000/svg" xmlns:xlink="http://www.w3.org/1999/xlink" x="0px" y="0px"
	 viewBox="0 0 50 50" style="enable-background:new 0 0 50 50;" xml:space="preserve">
<g>
	<path d="M4,10.1c-0.5,0-1-0.1-1.4-0.3C2.3,9.6,1.9,9.4,1.6,9C1.3,8.7,1.1,8.3,0.9,7.7C0.7,7.2,0.6,6.7,0.6,6c0-0.6,0.1-1.2,0.3-1.7
		C1.1,3.8,1.3,3.4,1.6,3c0.3-0.3,0.7-0.6,1.1-0.8C3.1,2,3.6,1.9,4.1,1.9c0.3,0,0.5,0,0.7,0.1c0.2,0.1,0.4,0.1,0.6,0.2
		c0.2,0.1,0.3,0.2,0.5,0.3c0.1,0.1,0.3,0.2,0.4,0.3L5.7,3.5C5.5,3.3,5.3,3.2,5.1,3C4.8,2.9,4.5,2.8,4.1,2.8c-0.4,0-0.7,0.1-1,0.2
		S2.6,3.4,2.4,3.7C2.1,4,2,4.3,1.9,4.7C1.7,5.1,1.7,5.5,1.7,6c0,0.5,0.1,0.9,0.2,1.3c0.1,0.4,0.3,0.7,0.5,1C2.5,8.6,2.8,8.8,3.1,9
		c0.3,0.2,0.6,0.2,1,0.2c0.3,0,0.5,0,0.8-0.1C5.1,9,5.3,8.9,5.5,8.8V6.7H3.9V5.9h2.5v3.3c-0.2,0.3-0.6,0.5-1,0.6S4.6,10.1,4,10.1z"
		/>
</g>
</svg>
