<?xml version="1.0" encoding="utf-8"?>
<!-- Generator: Adobe Illustrator 23.0.2, SVG Export Plug-In . SVG Version: 6.00 Build 0)  -->
<svg version="1.1" id="Layer_1" xmlns="http://www.w3.org/2000/svg" xmlns:xlink="http://www.w3.org/1999/xlink" x="0px" y="0px"
	 viewBox="0 0 50 50" style="enable-background:new 0 0 50 50;" xml:space="preserve">
<g>
	<path d="M3.3,10.1C2.9,10.1,2.4,10,2,9.8c-0.4-0.2-0.8-0.5-1-1l0.6-0.6C1.8,8.5,2.1,8.8,2.4,9C2.7,9.1,3,9.2,3.3,9.2
		c0.6,0,1-0.1,1.2-0.5C4.8,8.5,4.9,8,4.9,7.4V2.9H1.6V2.1h4.3v5.4c0,0.4,0,0.7-0.1,1C5.7,8.8,5.5,9.1,5.3,9.3
		C5.1,9.6,4.9,9.8,4.5,9.9C4.2,10,3.8,10.1,3.3,10.1z"/>
</g>
</svg>
