<?xml version="1.0" encoding="utf-8"?>
<!-- Generator: Adobe Illustrator 23.0.2, SVG Export Plug-In . SVG Version: 6.00 Build 0)  -->
<svg version="1.1" id="Layer_1" xmlns="http://www.w3.org/2000/svg" xmlns:xlink="http://www.w3.org/1999/xlink" x="0px" y="0px"
	 viewBox="0 0 50 50" style="enable-background:new 0 0 50 50;" xml:space="preserve">
<g>
	<path d="M0.9,10V2.1h1.2l1.1,3.4l0.4,1.3h0L4,5.4l1.1-3.4h1.2V10h-1V6c0-0.2,0-0.4,0-0.7c0-0.3,0-0.5,0-0.8c0-0.3,0-0.5,0.1-0.7
		c0-0.2,0-0.4,0-0.6h0L5.1,4.8L3.9,7.9H3.2L2.1,4.8L1.7,3.2h0c0,0.2,0,0.4,0.1,0.6c0,0.2,0,0.5,0.1,0.7c0,0.3,0,0.5,0,0.8
		c0,0.3,0,0.5,0,0.7V10H0.9z"/>
</g>
</svg>
