<?xml version="1.0" encoding="utf-8"?>
<!-- Generator: Adobe Illustrator 23.0.2, SVG Export Plug-In . SVG Version: 6.00 Build 0)  -->
<svg version="1.1" id="Layer_1" xmlns="http://www.w3.org/2000/svg" xmlns:xlink="http://www.w3.org/1999/xlink" x="0px" y="0px"
	 viewBox="0 0 50 50" style="enable-background:new 0 0 50 50;" xml:space="preserve">
<g>
	<path d="M3.6,10.1c-0.4,0-0.9-0.1-1.2-0.3C2,9.6,1.7,9.4,1.4,9C1.2,8.7,0.9,8.2,0.8,7.7C0.6,7.2,0.6,6.6,0.6,6
		c0-0.6,0.1-1.2,0.2-1.7C0.9,3.8,1.2,3.4,1.4,3c0.3-0.3,0.6-0.6,1-0.8C2.7,2,3.2,1.9,3.6,1.9C4,1.9,4.4,2,4.8,2.2
		c0.4,0.2,0.7,0.4,1,0.8C6,3.4,6.3,3.8,6.4,4.3C6.5,4.8,6.6,5.4,6.6,6c0,0.6-0.1,1.2-0.2,1.7C6.3,8.2,6,8.7,5.8,9
		c-0.3,0.4-0.6,0.6-1,0.8C4.4,10,4,10.1,3.6,10.1z M3.6,9.2c0.3,0,0.6-0.1,0.8-0.2C4.7,8.9,4.9,8.6,5,8.4c0.2-0.3,0.3-0.6,0.4-1
		C5.5,6.9,5.6,6.5,5.6,6c0-0.5,0-0.9-0.1-1.3C5.4,4.3,5.2,3.9,5,3.7S4.7,3.2,4.4,3S3.9,2.8,3.6,2.8C3.3,2.8,3,2.9,2.8,3
		S2.3,3.4,2.2,3.7C2,3.9,1.8,4.3,1.8,4.7C1.7,5,1.6,5.5,1.6,6c0,0.5,0,1,0.1,1.4c0.1,0.4,0.2,0.7,0.4,1C2.3,8.6,2.5,8.9,2.8,9
		C3,9.2,3.3,9.2,3.6,9.2z"/>
</g>
</svg>
