<?xml version="1.0" encoding="utf-8"?>
<!-- Generator: Adobe Illustrator 23.0.2, SVG Export Plug-In . SVG Version: 6.00 Build 0)  -->
<svg version="1.1" id="Layer_1" xmlns="http://www.w3.org/2000/svg" xmlns:xlink="http://www.w3.org/1999/xlink" x="0px" y="0px"
	 viewBox="0 0 50 50" style="enable-background:new 0 0 50 50;" xml:space="preserve">
<g>
	<path d="M1.2,10V2.1h2.4c0.4,0,0.8,0,1.2,0.1s0.7,0.2,0.9,0.4C6,2.8,6.2,3,6.3,3.3C6.4,3.6,6.5,4,6.5,4.4c0,0.4-0.1,0.8-0.2,1.1
		C6.2,5.8,6,6,5.7,6.2C5.4,6.4,5.1,6.6,4.8,6.7C4.4,6.8,4,6.8,3.6,6.8H2.2V10H1.2z M2.2,6h1.3C4.2,6,4.7,5.9,5,5.6
		C5.3,5.4,5.5,5,5.5,4.4c0-0.6-0.2-1-0.5-1.2C4.7,3,4.2,2.9,3.5,2.9H2.2V6z"/>
</g>
</svg>
