<?xml version="1.0" encoding="utf-8"?>
<!-- Generator: Adobe Illustrator 23.0.2, SVG Export Plug-In . SVG Version: 6.00 Build 0)  -->
<svg version="1.1" id="Layer_1" xmlns="http://www.w3.org/2000/svg" xmlns:xlink="http://www.w3.org/1999/xlink" x="0px" y="0px"
	 viewBox="0 0 50 50" style="enable-background:new 0 0 50 50;" xml:space="preserve">
<g>
	<path d="M5.8,11.9c-0.7,0-1.3-0.2-1.7-0.5c-0.4-0.4-0.8-0.8-0.9-1.3c-0.4-0.1-0.7-0.2-1-0.4C1.8,9.4,1.5,9.1,1.3,8.8
		C1.1,8.5,0.9,8,0.8,7.6C0.7,7.1,0.6,6.6,0.6,6c0-0.6,0.1-1.2,0.2-1.7C1,3.8,1.2,3.4,1.4,3C1.7,2.7,2,2.4,2.4,2.2
		C2.7,2,3.2,1.9,3.6,1.9C4,1.9,4.5,2,4.8,2.2C5.2,2.4,5.5,2.7,5.8,3C6,3.4,6.2,3.8,6.4,4.3C6.5,4.8,6.6,5.4,6.6,6
		c0,0.6-0.1,1.1-0.2,1.6C6.3,8,6.1,8.4,5.9,8.8C5.7,9.1,5.5,9.4,5.2,9.6C4.9,9.8,4.5,10,4.2,10c0.1,0.3,0.4,0.6,0.6,0.8
		c0.3,0.2,0.6,0.3,1.1,0.3c0.1,0,0.2,0,0.3,0s0.2-0.1,0.3-0.1l0.2,0.8c-0.1,0-0.3,0.1-0.4,0.1C6.1,11.9,5.9,11.9,5.8,11.9z M3.6,9.3
		C4.2,9.3,4.7,9,5,8.4C5.4,7.8,5.6,7,5.6,6c0-1-0.2-1.8-0.5-2.3C4.7,3.1,4.2,2.8,3.6,2.8C3,2.8,2.5,3.1,2.2,3.6C1.8,4.2,1.6,5,1.6,6
		c0,1,0.2,1.8,0.5,2.4C2.5,9,3,9.3,3.6,9.3z"/>
</g>
</svg>
