<?xml version="1.0" encoding="utf-8"?>
<!-- Generator: Adobe Illustrator 23.0.2, SVG Export Plug-In . SVG Version: 6.00 Build 0)  -->
<svg version="1.1" id="Layer_1" xmlns="http://www.w3.org/2000/svg" xmlns:xlink="http://www.w3.org/1999/xlink" x="0px" y="0px"
	 viewBox="0 0 50 50" style="enable-background:new 0 0 50 50;" xml:space="preserve">
<g>
	<path d="M1.2,10V2.1h2.4c0.4,0,0.8,0,1.1,0.1s0.6,0.2,0.9,0.4C5.9,2.8,6.1,3,6.2,3.3c0.1,0.3,0.2,0.6,0.2,1c0,0.6-0.2,1.1-0.5,1.5
		C5.6,6.1,5.2,6.4,4.6,6.5l2,3.4H5.5L3.6,6.6H2.2V10H1.2z M2.2,5.8h1.3c0.6,0,1.1-0.1,1.4-0.4c0.3-0.3,0.5-0.6,0.5-1.1
		c0-0.5-0.2-0.9-0.5-1.1C4.6,3,4.1,2.9,3.5,2.9H2.2V5.8z"/>
</g>
</svg>
