<?xml version="1.0" encoding="utf-8"?>
<!-- Generator: Adobe Illustrator 23.0.2, SVG Export Plug-In . SVG Version: 6.00 Build 0)  -->
<svg version="1.1" id="Layer_1" xmlns="http://www.w3.org/2000/svg" xmlns:xlink="http://www.w3.org/1999/xlink" x="0px" y="0px"
	 viewBox="0 0 50 50" style="enable-background:new 0 0 50 50;" xml:space="preserve">
<g>
	<path d="M3.7,10.1c-0.6,0-1.1-0.1-1.6-0.3S1.2,9.3,0.8,8.9l0.6-0.7C1.7,8.5,2,8.8,2.4,9c0.4,0.2,0.8,0.3,1.3,0.3
		c0.5,0,1-0.1,1.3-0.3C5.3,8.6,5.4,8.3,5.4,8c0-0.2,0-0.4-0.1-0.5C5.2,7.3,5.1,7.2,5,7.1C4.9,7,4.7,6.9,4.6,6.8
		C4.4,6.7,4.2,6.6,4,6.6L2.9,6.1C2.7,6,2.5,5.9,2.3,5.8C2.1,5.7,1.9,5.5,1.7,5.4C1.6,5.2,1.4,5,1.3,4.8C1.2,4.6,1.2,4.3,1.2,4
		c0-0.3,0.1-0.6,0.2-0.8c0.1-0.3,0.3-0.5,0.5-0.7s0.5-0.3,0.8-0.4C3,2,3.4,1.9,3.8,1.9c0.5,0,1,0.1,1.4,0.3c0.4,0.2,0.8,0.4,1.1,0.7
		L5.7,3.6C5.4,3.3,5.1,3.1,4.8,3C4.5,2.9,4.1,2.8,3.7,2.8c-0.5,0-0.8,0.1-1.1,0.3C2.3,3.3,2.2,3.6,2.2,4c0,0.2,0,0.4,0.1,0.5
		s0.2,0.2,0.3,0.3S2.9,5,3.1,5.1s0.3,0.1,0.5,0.2l1.1,0.5C4.9,5.9,5.2,6,5.4,6.1s0.4,0.3,0.6,0.4c0.2,0.2,0.3,0.4,0.4,0.6
		c0.1,0.2,0.1,0.5,0.1,0.8c0,0.3-0.1,0.6-0.2,0.9S5.9,9.2,5.7,9.5C5.5,9.7,5.2,9.8,4.8,9.9C4.5,10,4.1,10.1,3.7,10.1z"/>
</g>
</svg>
