<?xml version="1.0" encoding="utf-8"?>
<!-- Generator: Adobe Illustrator 23.0.2, SVG Export Plug-In . SVG Version: 6.00 Build 0)  -->
<svg version="1.1" id="Layer_1" xmlns="http://www.w3.org/2000/svg" xmlns:xlink="http://www.w3.org/1999/xlink" x="0px" y="0px"
	 viewBox="0 0 50 50" style="enable-background:new 0 0 50 50;" xml:space="preserve">
<g>
	<path d="M3.6,10.1c-0.4,0-0.7-0.1-1.1-0.2S1.9,9.6,1.7,9.4c-0.2-0.3-0.4-0.6-0.6-1C1,8,0.9,7.6,0.9,7V2.1h1V7c0,0.4,0,0.8,0.1,1
		c0.1,0.3,0.2,0.5,0.3,0.7C2.6,8.9,2.8,9,3,9.1c0.2,0.1,0.4,0.1,0.7,0.1c0.2,0,0.5,0,0.7-0.1C4.5,9,4.6,8.9,4.8,8.7S5.1,8.3,5.2,8
		c0.1-0.3,0.1-0.6,0.1-1V2.1h1V7c0,0.6-0.1,1-0.2,1.4c-0.1,0.4-0.3,0.7-0.5,1S5,9.8,4.7,9.9C4.4,10,4,10.1,3.6,10.1z"/>
</g>
</svg>
