<?xml version="1.0" encoding="utf-8"?>
<!-- Generator: Adobe Illustrator 23.0.2, SVG Export Plug-In . SVG Version: 6.00 Build 0)  -->
<svg version="1.1" id="Layer_1" xmlns="http://www.w3.org/2000/svg" xmlns:xlink="http://www.w3.org/1999/xlink" x="0px" y="0px"
	 viewBox="0 0 50 50" style="enable-background:new 0 0 50 50;" xml:space="preserve">
<g>
	<path d="M1.3,10L0.1,2.1h1.1L1.8,7c0,0.2,0,0.3,0,0.5c0,0.1,0,0.3,0,0.4c0,0.1,0,0.3,0,0.4c0,0.2,0,0.3,0,0.5h0
		c0-0.2,0.1-0.4,0.1-0.5c0-0.2,0.1-0.3,0.1-0.4c0-0.1,0.1-0.3,0.1-0.4c0-0.1,0.1-0.3,0.1-0.4l0.8-2.9h1L4.9,7c0,0.2,0.1,0.3,0.1,0.4
		C5,7.6,5,7.8,5.1,7.9c0,0.1,0.1,0.3,0.1,0.4c0,0.2,0.1,0.3,0.1,0.5h0c0-0.2,0-0.4,0-0.5s0-0.3,0-0.4c0-0.1,0-0.3,0-0.4
		c0-0.1,0-0.3,0-0.4l0.6-5h1.1L5.9,10H4.7L3.9,6.8C3.8,6.6,3.8,6.3,3.8,6.1S3.7,5.6,3.6,5.4h0c0,0.2-0.1,0.5-0.1,0.7
		S3.4,6.6,3.3,6.8L2.5,10H1.3z"/>
</g>
</svg>
