<?xml version="1.0" encoding="utf-8"?>
<!-- Generator: Adobe Illustrator 23.0.2, SVG Export Plug-In . SVG Version: 6.00 Build 0)  -->
<svg version="1.1" id="Layer_1" xmlns="http://www.w3.org/2000/svg" xmlns:xlink="http://www.w3.org/1999/xlink" x="0px" y="0px"
	 viewBox="0 0 50 50" style="enable-background:new 0 0 50 50;" xml:space="preserve">
<g>
	<path d="M0.6,10L3,5.9L0.8,2.1h1.1l1.1,2c0.1,0.2,0.2,0.4,0.3,0.5C3.4,4.8,3.5,5,3.6,5.2h0C3.8,5,3.9,4.8,4,4.6
		c0.1-0.2,0.2-0.4,0.3-0.5l1.1-2h1.1L4.2,5.9l2.4,4H5.4L4.3,7.8C4.1,7.6,4,7.4,3.9,7.2C3.8,7,3.7,6.8,3.6,6.6h0
		C3.4,6.8,3.3,7,3.2,7.2C3.1,7.4,3,7.6,2.9,7.8L1.7,10H0.6z"/>
</g>
</svg>
